<svg version="1.1" id="Layer_1" xmlns="http://www.w3.org/2000/svg" xmlns:xlink="http://www.w3.org/1999/xlink" x="0px" y="0px"
	 width="100%" viewBox="0 0 3000 3000" enable-background="new 0 0 3000 3000" xml:space="preserve">
<path fill="#000000" opacity="1.000000" stroke="none" 
	d="
M1320.000000,3002.000000 
	C880.000061,3002.000000 441.000153,3002.000000 2.000177,3002.000000 
	C2.000118,2002.000244 2.000118,1002.000488 2.000059,2.000579 
	C1001.999573,2.000386 2001.999146,2.000386 3001.999023,2.000193 
	C3001.999512,1001.999329 3001.999512,2001.998657 3001.999756,3001.999023 
	C2441.666748,3002.000000 1881.333374,3002.000000 1320.000000,3002.000000 
M1400.364258,1781.002197 
	C1400.364258,1687.346924 1400.369873,1593.691650 1400.343018,1500.036377 
	C1400.342041,1496.385376 1400.469116,1492.647217 1399.764526,1489.103149 
	C1398.637207,1483.432739 1394.112305,1480.335938 1388.051514,1480.326660 
	C1382.567139,1480.318115 1377.608398,1484.133667 1376.527954,1489.479370 
	C1376.137939,1491.408936 1376.311768,1493.462524 1376.311646,1495.459595 
	C1376.304077,1617.444702 1376.300537,1739.429932 1376.339233,1861.415039 
	C1376.339966,1863.955444 1376.837769,1866.495605 1377.127930,1869.266357 
	C1385.030762,1869.266357 1392.250000,1869.266357 1399.315186,1869.266357 
	C1399.706665,1868.223633 1400.140381,1867.605469 1400.142456,1866.985718 
	C1400.240234,1838.991333 1400.300049,1810.996826 1400.364258,1781.002197 
M1590.176514,1817.435425 
	C1604.298340,1808.928101 1610.739502,1795.628418 1611.425903,1779.937500 
	C1612.198975,1762.265625 1604.457886,1748.414673 1586.481323,1739.043091 
	C1589.080933,1737.620483 1590.257935,1737.035400 1591.377319,1736.355591 
	C1614.111816,1722.551758 1612.272461,1676.813721 1580.665527,1665.332153 
	C1574.241821,1662.998779 1567.051758,1662.055542 1560.172241,1661.841064 
	C1544.195679,1661.342651 1528.192871,1661.641235 1512.201050,1661.715454 
	C1509.312744,1661.728882 1506.426514,1662.213013 1503.783325,1662.457275 
	C1501.325806,1673.889038 1501.781006,1816.095337 1504.212036,1823.612061 
	C1506.061890,1823.833374 1508.024902,1824.266846 1509.989014,1824.272217 
	C1528.646240,1824.322632 1547.330078,1824.877563 1565.948242,1824.022705 
	C1573.676392,1823.667969 1581.264282,1820.256104 1590.176514,1817.435425 
M1057.208008,1775.766602 
	C1073.517090,1793.481323 1089.826050,1811.196045 1106.857910,1829.695923 
	C1109.231323,1816.877075 1108.723267,1670.122192 1106.506958,1662.440918 
	C1100.494995,1661.579834 1094.382202,1660.522461 1087.670654,1663.741455 
	C1087.670654,1673.050781 1087.670776,1682.349609 1087.670776,1691.648438 
	C1087.670776,1700.978271 1087.670776,1710.308105 1087.670776,1719.637939 
	C1087.670776,1729.301025 1087.824707,1738.967163 1087.626221,1748.626221 
	C1087.439087,1757.726929 1088.509521,1766.919189 1086.544922,1777.788696 
	C1048.916382,1737.273926 1013.502502,1697.076416 976.131897,1657.376709 
	C973.538879,1668.329468 973.717041,1815.277588 976.037292,1823.588623 
	C982.060791,1823.588623 988.197876,1823.588623 995.772156,1823.588623 
	C995.772156,1785.854736 995.772156,1748.817871 995.772156,1711.781128 
	C996.596436,1711.473755 997.420715,1711.166382 998.244995,1710.859009 
	C1017.575928,1732.152100 1036.906860,1753.445190 1057.208008,1775.766602 
M544.974854,1824.321167 
	C548.967773,1824.319824 552.960815,1824.337646 556.953613,1824.314331 
	C578.021973,1824.191284 596.368530,1816.373169 610.657959,1801.537842 
	C635.416809,1775.833130 640.672913,1745.130859 628.349121,1711.981812 
	C617.041870,1681.566772 588.062317,1662.313965 554.628113,1661.734375 
	C539.326660,1661.469116 524.016479,1661.650757 508.710724,1661.728638 
	C506.145935,1661.741699 503.583740,1662.260498 501.236877,1662.521484 
	C498.932159,1672.656128 499.142365,1815.149414 501.670685,1824.321655 
	C515.192871,1824.321655 529.088318,1824.321655 544.974854,1824.321167 
M1839.679810,1703.000000 
	C1839.679932,1716.322510 1839.680054,1729.644897 1839.680054,1742.967407 
	C1839.680054,1756.622925 1839.564575,1770.279785 1839.713257,1783.933716 
	C1839.856445,1797.096802 1839.027222,1810.316650 1840.297852,1823.533447 
	C1847.398193,1823.533447 1853.213501,1823.533447 1860.319458,1823.533447 
	C1860.319458,1818.870850 1860.319458,1814.969727 1860.319580,1811.068604 
	C1860.319946,1781.093018 1860.276123,1751.117188 1860.382690,1721.141968 
	C1860.394531,1717.813721 1859.209351,1714.019165 1862.699463,1710.561768 
	C1899.158813,1749.625732 1934.124878,1789.435913 1971.367920,1827.529663 
	C1972.225586,1772.346680 1972.497437,1717.621460 1972.169067,1662.552246 
	C1964.937866,1662.552246 1959.192505,1662.552246 1952.214233,1662.552246 
	C1952.214233,1700.784058 1952.214233,1738.179810 1952.214233,1775.575562 
	C1951.517944,1775.828735 1950.821655,1776.082031 1950.125488,1776.335205 
	C1914.017090,1736.814575 1877.908569,1697.294067 1841.800171,1657.773560 
	C1841.093262,1658.018799 1840.386230,1658.264038 1839.679321,1658.509277 
	C1839.679321,1672.672852 1839.679321,1686.836548 1839.679810,1703.000000 
M1376.304077,2008.994507 
	C1376.218872,2019.314697 1376.747437,2029.684570 1375.919556,2039.944824 
	C1374.241333,2060.741211 1356.724731,2077.475342 1336.144531,2077.475586 
	C1315.797852,2077.476074 1297.541016,2062.281982 1295.721924,2042.041504 
	C1295.040161,2034.456299 1294.776489,2026.832520 1294.362183,2019.224121 
	C1293.910278,2010.927124 1289.809692,2007.184326 1281.621582,2007.661377 
	C1274.718140,2008.063721 1270.618530,2012.119019 1270.457397,2020.292969 
	C1270.294556,2028.556641 1270.985474,2036.856445 1271.644409,2045.113281 
	C1273.840698,2072.633057 1298.316162,2100.698486 1333.853760,2101.567383 
	C1371.506836,2102.487793 1400.376221,2073.071289 1400.365112,2036.812134 
	C1400.350952,1990.519165 1400.373413,1944.226074 1400.334839,1897.933105 
	C1400.332764,1895.373657 1399.917847,1892.814453 1399.707520,1890.397705 
	C1391.632446,1890.397705 1384.197998,1890.397705 1376.304077,1890.397705 
	C1376.304077,1929.766846 1376.304077,1968.381592 1376.304077,2008.994507 
M715.741760,1706.985107 
	C715.741882,1699.660522 715.978882,1692.326172 715.676331,1685.014038 
	C715.366760,1677.531494 717.122498,1669.844727 714.239746,1662.540771 
	C707.660217,1662.540771 701.539368,1662.540771 695.610596,1662.540771 
	C693.137146,1675.751343 693.815796,1816.468628 696.240540,1823.454834 
	C702.349365,1823.454834 708.469299,1823.454834 715.741394,1823.454834 
	C715.741394,1819.004883 715.741211,1815.421143 715.741394,1811.837402 
	C715.742554,1793.526001 715.706665,1775.214478 715.786255,1756.903320 
	C715.797852,1754.233521 716.361084,1751.566162 716.860474,1747.238159 
	C725.713989,1755.423950 733.150696,1762.023315 740.276245,1768.943237 
	C756.988220,1785.172852 773.474182,1801.635864 790.250793,1817.797852 
	C793.012146,1820.457886 796.618835,1823.464233 800.123047,1823.879517 
	C807.859741,1824.796753 815.780151,1824.164673 823.625610,1824.164673 
	C823.944641,1823.483276 824.263672,1822.801880 824.582703,1822.120483 
	C798.101074,1794.984619 769.362854,1770.049072 743.055298,1741.984375 
	C748.432495,1736.127197 753.040955,1730.919556 757.849304,1725.903442 
	C775.345032,1707.651855 792.930786,1689.486450 810.417542,1671.226318 
	C812.778809,1668.760620 815.534851,1666.344971 815.731934,1661.665405 
	C810.868713,1661.665405 806.529541,1662.060669 802.289978,1661.579102 
	C794.616455,1660.707275 789.131287,1663.681152 783.976379,1669.239868 
	C766.336914,1688.261353 748.367493,1706.978149 730.432617,1725.723877 
	C726.461487,1729.874512 722.116882,1733.667969 717.944153,1737.625854 
	C717.209900,1737.269775 716.475647,1736.913818 715.741394,1736.557861 
	C715.741394,1727.364014 715.741394,1718.170044 715.741760,1706.985107 
M2658.814453,1826.325806 
	C2673.013672,1826.329590 2685.459473,1821.768433 2696.449219,1812.665283 
	C2716.840088,1795.774658 2720.645508,1753.698486 2688.671631,1738.699829 
	C2679.107910,1734.213745 2668.637451,1731.668457 2658.603760,1728.173218 
	C2652.024658,1725.881226 2645.176514,1724.094727 2638.987061,1721.004395 
	C2624.738281,1713.890747 2622.691650,1699.519287 2633.678711,1688.107788 
	C2645.488525,1675.841553 2677.041748,1675.455933 2686.648438,1695.231323 
	C2687.934326,1697.877441 2689.334717,1700.468018 2691.056641,1703.811768 
	C2697.277100,1702.306763 2703.238281,1700.864502 2709.049316,1699.458618 
	C2707.419678,1684.167847 2700.010010,1672.783325 2686.822266,1666.238770 
	C2667.676025,1656.737305 2648.173828,1656.868896 2629.266602,1666.783203 
	C2623.827148,1669.635742 2618.889404,1674.164795 2614.884277,1678.907104 
	C2598.434570,1698.385864 2604.261963,1727.802002 2626.974121,1739.119751 
	C2634.926758,1743.082642 2643.781494,1745.263184 2652.277100,1748.099731 
	C2659.526123,1750.519897 2667.147949,1752.065308 2674.041992,1755.225708 
	C2678.982422,1757.490479 2684.038574,1761.013184 2687.212158,1765.322754 
	C2694.920898,1775.792480 2691.295654,1791.327393 2680.039307,1799.698120 
	C2660.454590,1814.261963 2626.520020,1807.207642 2620.703369,1781.416016 
	C2620.355225,1779.872192 2619.616455,1778.416626 2618.844238,1776.342407 
	C2614.556396,1777.147095 2610.649658,1777.667725 2606.858887,1778.639771 
	C2600.568604,1780.253052 2599.093018,1781.828735 2601.262207,1787.701294 
	C2603.863037,1794.742065 2606.962402,1802.021484 2611.583984,1807.809570 
	C2623.045654,1822.164185 2639.040039,1826.939331 2658.814453,1826.325806 
M1198.662231,1716.029785 
	C1190.787109,1705.038208 1193.119751,1692.818970 1204.276245,1685.023438 
	C1217.544800,1675.752075 1247.214355,1677.011841 1255.380493,1698.639038 
	C1255.952026,1700.152588 1256.800049,1701.561768 1257.904907,1703.800293 
	C1264.052612,1702.303711 1269.979004,1700.860962 1276.150391,1699.358643 
	C1275.230713,1686.806030 1269.286987,1678.341064 1261.051147,1671.097534 
	C1243.140747,1655.345093 1203.257202,1654.472290 1183.540527,1676.726074 
	C1168.686890,1693.490967 1166.179932,1727.327515 1194.880249,1739.584229 
	C1204.916748,1743.870483 1215.687378,1746.412476 1226.031982,1750.011841 
	C1232.909912,1752.404907 1240.215820,1754.312378 1246.301514,1758.093140 
	C1262.151367,1767.940063 1262.035522,1789.045410 1246.742432,1799.909668 
	C1240.273682,1804.504883 1232.945801,1806.932129 1225.290527,1807.248169 
	C1207.987549,1807.962402 1191.771606,1798.657227 1187.794800,1782.180176 
	C1187.356934,1780.365601 1186.439941,1778.666626 1185.443237,1776.152466 
	C1179.080444,1777.707397 1173.170166,1779.151733 1167.245972,1780.599609 
	C1168.138428,1794.807983 1174.061523,1805.030396 1183.725098,1813.624146 
	C1201.983521,1829.861694 1236.509155,1829.844604 1254.355835,1818.935669 
	C1272.710815,1807.715820 1280.579956,1791.474243 1278.339600,1770.032959 
	C1276.421875,1751.678223 1264.680420,1741.854614 1248.974854,1735.619629 
	C1241.274902,1732.562500 1233.006714,1730.955811 1225.243408,1728.033936 
	C1216.600586,1724.780884 1208.239624,1720.778564 1198.662231,1716.029785 
M351.670532,1772.322510 
	C366.997375,1772.326782 382.325928,1772.463379 397.650085,1772.262817 
	C402.934174,1772.193604 406.550842,1773.579468 408.375031,1778.994995 
	C409.748566,1783.072510 411.930542,1786.877319 413.749115,1790.805176 
	C418.887634,1801.903687 424.024292,1813.003174 429.261169,1824.317383 
	C433.463379,1824.317383 436.770630,1824.410645 440.070129,1824.290527 
	C443.235046,1824.175293 446.391907,1823.838623 451.404877,1823.458984 
	C425.609741,1767.182251 400.190247,1712.547241 374.548309,1658.015625 
	C373.698059,1658.040527 372.847809,1658.065308 371.997559,1658.090210 
	C346.543945,1712.829346 321.090302,1767.568481 294.712830,1824.294434 
	C301.766083,1824.294434 306.645081,1824.118652 311.505341,1824.345093 
	C316.183075,1824.562866 318.680298,1822.518921 320.528137,1818.246948 
	C326.078339,1805.414673 332.223145,1792.839355 337.747650,1779.996582 
	C340.168518,1774.368774 343.598785,1771.380615 351.670532,1772.322510 
M1770.107544,1823.607544 
	C1774.057739,1818.484131 1772.145508,1813.070679 1771.153931,1806.219238 
	C1746.509277,1806.219238 1722.077271,1806.219238 1698.018311,1806.219238 
	C1695.455078,1794.535156 1695.824219,1759.857178 1698.448242,1752.081543 
	C1721.662598,1750.971191 1745.200439,1752.598999 1768.978882,1751.145264 
	C1768.978882,1744.550293 1768.978882,1739.096191 1768.978882,1732.270630 
	C1756.381714,1732.270630 1744.490479,1732.384277 1732.602295,1732.238647 
	C1720.802368,1732.094238 1708.935181,1732.911255 1696.695190,1731.591187 
	C1696.202271,1714.090942 1696.067627,1697.954956 1696.739502,1680.453003 
	C1722.255127,1680.368164 1746.674316,1680.286987 1771.362305,1680.204956 
	C1771.362305,1673.373779 1771.362305,1668.002930 1771.362305,1662.796753 
	C1756.474854,1660.496460 1684.130249,1661.268066 1677.006836,1663.736084 
	C1677.006836,1716.735840 1677.006836,1769.829224 1677.006836,1824.087769 
	C1707.921509,1824.087769 1738.112549,1824.087769 1770.107544,1823.607544 
M2045.670166,1792.992432 
	C2045.998413,1803.149902 2044.953369,1813.396484 2046.344849,1823.210205 
	C2062.508301,1825.582275 2134.067139,1824.738770 2141.716553,1821.986938 
	C2141.459961,1817.170410 2141.189697,1812.093018 2140.863037,1805.953613 
	C2115.476074,1805.953613 2091.299072,1805.953613 2066.157715,1805.953613 
	C2065.637939,1787.438354 2065.142334,1770.070679 2066.526123,1751.464355 
	C2090.743408,1751.464355 2113.905273,1751.464355 2137.664062,1751.464355 
	C2137.664062,1744.727661 2137.664062,1739.255615 2137.664062,1732.547241 
	C2113.649902,1732.359375 2090.232666,1732.176147 2066.191650,1731.988159 
	C2065.713623,1714.135132 2065.002686,1697.731201 2066.605713,1680.729858 
	C2091.977295,1679.537109 2116.477783,1681.250488 2140.924316,1679.736450 
	C2140.924316,1673.194214 2140.924316,1668.053711 2140.924316,1663.092163 
	C2130.146973,1660.895264 2054.515137,1661.225952 2045.669556,1663.680908 
	C2045.669556,1705.882935 2045.669556,1748.439331 2045.670166,1792.992432 
M1166.642090,1266.241821 
	C1174.051636,1267.700806 1181.461182,1269.159790 1188.684326,1270.582031 
	C1196.612427,1249.987549 1187.807129,1211.557495 1173.499756,1194.639160 
	C1158.556763,1176.969116 1117.890381,1162.924316 1101.708008,1168.449341 
	C1102.547607,1178.999390 1102.708252,1189.972900 1104.419189,1200.699097 
	C1108.285522,1224.937256 1119.866821,1244.435303 1142.168091,1256.173218 
	C1149.476318,1260.019775 1157.415894,1262.666626 1166.642090,1266.241821 
M1255.819092,1225.177490 
	C1245.413086,1219.414551 1234.848145,1214.061157 1221.969482,1211.702393 
	C1214.681763,1239.036255 1211.997559,1265.473877 1227.209473,1290.726685 
	C1238.838989,1310.032349 1268.705933,1329.506958 1286.854858,1329.906982 
	C1291.373169,1314.044189 1294.930176,1297.994507 1293.250977,1281.196289 
	C1290.780762,1256.486450 1277.697876,1238.732910 1255.819092,1225.177490 
M1731.516968,1056.411133 
	C1699.352905,1071.209106 1684.315796,1111.140381 1690.865845,1147.635376 
	C1756.556885,1145.661987 1784.074463,1104.868896 1776.650146,1045.376465 
	C1766.564941,1044.125854 1750.244019,1048.022217 1731.516968,1056.411133 
M1745.500732,1402.236328 
	C1724.523926,1410.572754 1708.103516,1424.358276 1694.788818,1444.206909 
	C1717.363647,1460.118530 1740.382812,1470.802124 1768.359375,1466.821533 
	C1791.282593,1463.559937 1821.588989,1437.333740 1827.707153,1419.175293 
	C1823.284912,1416.481567 1818.937378,1413.380005 1814.214600,1411.034424 
	C1792.893799,1400.444946 1770.930908,1393.998901 1745.500732,1402.236328 
M1463.222046,1476.229858 
	C1458.113281,1481.307617 1453.050049,1486.418579 1450.056763,1493.015015 
	C1500.916870,1533.070068 1551.814697,1520.962646 1583.015137,1468.840332 
	C1578.277832,1465.937622 1573.688232,1462.714722 1568.747803,1460.174316 
	C1552.872070,1452.010376 1536.172729,1446.609131 1518.072144,1447.848755 
	C1496.348267,1449.336670 1479.207764,1460.260376 1463.222046,1476.229858 
M1069.039551,1480.123657 
	C1062.728760,1485.342041 1056.417969,1490.560547 1050.053101,1495.823730 
	C1092.385376,1541.075562 1140.507446,1543.282227 1186.036255,1500.455078 
	C1181.165649,1495.618286 1176.610718,1490.454102 1171.412109,1486.049805 
	C1154.199463,1471.467163 1135.131592,1461.766724 1111.593262,1463.583618 
	C1096.163086,1464.774780 1082.867310,1471.033569 1069.039551,1480.123657 
M1122.863159,1370.320923 
	C1105.389526,1371.436035 1088.455933,1374.538452 1072.747925,1382.714355 
	C1098.661011,1445.815674 1151.203979,1456.194702 1198.118164,1432.445679 
	C1192.670898,1416.866211 1184.023071,1403.158203 1172.665283,1391.334961 
	C1159.669067,1377.806030 1143.205444,1371.468262 1122.863159,1370.320923 
M1419.239868,1395.864136 
	C1426.942871,1361.868774 1414.235229,1327.201660 1386.988403,1307.880371 
	C1343.740601,1346.987061 1342.869385,1402.287720 1388.235229,1442.182861 
	C1401.342285,1429.253052 1412.340332,1414.947998 1419.239868,1395.864136 
M1454.145996,1102.624634 
	C1455.932007,1102.358398 1458.054443,1102.625000 1459.451660,1101.742920 
	C1472.498901,1093.505859 1483.840454,1083.379028 1492.734497,1070.672363 
	C1501.161865,1058.632202 1506.129883,1045.134888 1505.440308,1030.562256 
	C1504.515503,1011.017700 1497.998413,992.920471 1487.136597,976.534302 
	C1485.944214,974.735535 1484.241577,973.275085 1482.571533,971.432678 
	C1469.365723,980.532715 1458.218262,990.776428 1449.209839,1003.350037 
	C1438.255737,1018.639648 1434.035889,1035.531616 1436.171509,1054.191284 
	C1438.135498,1071.350830 1444.320801,1086.921631 1454.145996,1102.624634 
M918.149048,1368.925781 
	C946.632629,1385.606201 975.197937,1381.106201 1004.404785,1370.093750 
	C1002.860535,1360.414307 998.174500,1353.075073 993.619507,1345.927612 
	C980.239990,1324.933105 963.066162,1309.331909 936.662048,1306.958496 
	C918.983154,1305.369385 902.426514,1309.259766 886.205505,1315.560547 
	C883.890808,1316.459595 881.785034,1317.896729 879.104065,1319.342896 
	C888.111755,1339.183472 899.341736,1356.083130 918.149048,1368.925781 
M1583.730713,1509.216797 
	C1590.429443,1515.165161 1596.719360,1521.666748 1603.894165,1526.971069 
	C1646.303711,1558.323730 1691.657471,1536.092041 1714.440796,1508.807007 
	C1673.315918,1462.665283 1620.098877,1463.820190 1580.115601,1505.255371 
	C1580.979492,1506.234985 1581.853027,1507.225586 1583.730713,1509.216797 
M962.924500,1523.895020 
	C969.247742,1519.157104 975.570984,1514.419189 981.921570,1509.660767 
	C938.820129,1456.569214 883.777466,1462.704590 846.833923,1504.675049 
	C858.846924,1518.763428 876.675903,1530.757935 894.376038,1536.176270 
	C904.253967,1539.200073 914.189148,1540.330811 924.733948,1538.702759 
	C938.204468,1536.623169 950.112793,1531.288574 962.924500,1523.895020 
M1415.157104,1158.057129 
	C1434.662842,1118.899292 1411.057373,1078.332886 1386.964722,1059.886963 
	C1343.619385,1099.110840 1342.978394,1154.607056 1388.259888,1194.123657 
	C1399.004517,1184.080322 1407.553101,1172.375122 1415.157104,1158.057129 
M998.808411,1409.312134 
	C982.531067,1413.281494 967.914795,1420.531616 954.666687,1430.717163 
	C989.477600,1482.357544 1039.715820,1489.957886 1087.577515,1454.351318 
	C1071.890869,1427.471558 1042.088257,1400.630005 998.808411,1409.312134 
M1361.071411,940.160034 
	C1343.639648,975.136902 1362.131104,1018.466675 1387.647705,1037.937622 
	C1433.836548,997.164673 1434.006104,946.299988 1387.058228,903.716187 
	C1375.937378,913.454773 1367.974854,925.479736 1361.071411,940.160034 
M1307.724121,1100.962158 
	C1309.558228,1102.325684 1311.392212,1103.689209 1313.211182,1105.041504 
	C1354.992676,1059.177124 1347.502197,1005.388123 1294.957642,971.724609 
	C1284.801636,983.026184 1278.692871,996.540100 1274.544922,1010.930786 
	C1269.719971,1027.670044 1270.137695,1044.307983 1276.963623,1060.632324 
	C1283.531738,1076.339722 1294.481445,1088.658691 1307.724121,1100.962158 
M1898.802979,1529.886230 
	C1910.201172,1523.272461 1921.700073,1516.784668 1929.758789,1505.934692 
	C1888.260864,1459.833618 1838.414673,1460.110840 1795.551025,1500.911011 
	C1818.849243,1532.240112 1858.711670,1550.451904 1898.802979,1529.886230 
M1773.105347,1354.292358 
	C1771.875854,1356.912598 1770.646240,1359.532715 1769.450806,1362.080200 
	C1824.547241,1394.915771 1874.776855,1376.497314 1897.171875,1320.260376 
	C1887.489990,1314.224487 1876.586304,1311.230103 1865.621216,1308.814575 
	C1841.277466,1303.451904 1818.620605,1307.239014 1799.166138,1323.616699 
	C1789.218384,1331.991089 1780.632080,1341.782593 1773.105347,1354.292358 
M1168.305176,998.213928 
	C1172.451416,1028.099976 1200.784790,1061.430054 1226.699463,1066.906006 
	C1254.438354,1013.118958 1240.973755,965.090637 1180.308716,941.074463 
	C1171.787109,954.919006 1166.582520,978.746826 1168.305176,998.213928 
M1551.220337,972.193542 
	C1528.655151,998.161621 1534.578125,1044.164185 1549.178467,1066.984741 
	C1573.899658,1055.199707 1596.063599,1040.711548 1605.346802,1012.995667 
	C1612.599243,991.342529 1605.752686,953.826721 1592.874023,939.924438 
	C1577.149902,947.454590 1563.207275,957.387146 1551.220337,972.193542 
M1679.303711,1424.350708 
	C1686.589478,1415.646729 1693.094482,1406.472900 1696.879395,1395.652710 
	C1644.662842,1366.449585 1592.720825,1382.955200 1569.548828,1437.584473 
	C1586.304565,1448.084717 1604.853149,1453.255005 1624.349976,1453.147095 
	C1646.604858,1453.023804 1664.357422,1442.428467 1679.303711,1424.350708 
M1357.862793,1298.984009 
	C1367.642212,1284.835327 1374.929688,1269.540527 1376.220459,1252.234619 
	C1378.894165,1216.390259 1358.003174,1193.880737 1331.970581,1174.061646 
	C1293.165405,1223.220337 1302.613892,1275.426025 1351.167725,1308.068848 
	C1353.123657,1305.457275 1355.095459,1302.824707 1357.862793,1298.984009 
M1186.353516,1139.239136 
	C1187.400513,1132.713379 1189.099976,1126.214600 1189.370361,1119.656860 
	C1190.139648,1100.996826 1187.006348,1083.154175 1174.608521,1068.325439 
	C1160.496216,1051.446533 1141.896484,1041.620117 1120.968628,1035.840576 
	C1120.157349,1035.616455 1119.111572,1036.241699 1118.277100,1036.446167 
	C1099.623413,1092.210083 1123.067627,1139.259521 1182.451782,1153.949585 
	C1183.671387,1149.652344 1184.910400,1145.286865 1186.353516,1139.239136 
M1543.242188,1302.236694 
	C1563.326904,1276.696167 1561.921509,1248.260254 1555.182129,1218.876831 
	C1495.205078,1229.691284 1467.720337,1275.132812 1483.852539,1332.954712 
	C1506.217407,1328.715576 1526.354004,1320.228149 1543.242188,1302.236694 
M1544.151367,1171.006836 
	C1560.662964,1145.210205 1551.520386,1101.487305 1538.241333,1084.241211 
	C1535.600464,1085.515381 1532.830933,1086.660645 1530.244385,1088.128418 
	C1497.010254,1106.986206 1476.461548,1133.112305 1481.717163,1173.742554 
	C1483.407593,1186.810669 1486.359863,1199.553101 1493.020996,1211.438110 
	C1513.736816,1202.310059 1531.280518,1190.792603 1544.151367,1171.006836 
M1838.805664,1209.634888 
	C1816.043579,1223.510376 1795.763550,1254.154297 1796.563599,1273.803345 
	C1814.536743,1279.069336 1832.829346,1281.325439 1851.441406,1277.518188 
	C1877.676880,1272.151367 1893.416504,1254.421387 1903.898071,1231.250732 
	C1907.625488,1223.010986 1911.865723,1214.630127 1911.643799,1204.903687 
	C1886.973877,1198.766235 1863.205322,1198.028442 1838.805664,1209.634888 
M1265.063354,1516.344482 
	C1288.224121,1517.138794 1308.045654,1508.707275 1326.994385,1495.102783 
	C1322.571411,1489.319824 1319.301758,1484.273438 1315.259644,1479.949097 
	C1309.828247,1474.138550 1304.410767,1467.966187 1297.874023,1463.625977 
	C1289.688110,1458.190918 1280.819946,1452.728149 1271.462402,1450.308472 
	C1241.980713,1442.685181 1217.152466,1454.566162 1193.462402,1470.978516 
	C1194.132324,1472.831299 1194.324585,1474.215088 1195.043823,1475.222656 
	C1204.228394,1488.088989 1215.497314,1498.792725 1229.184326,1506.714233 
	C1239.631104,1512.760376 1250.661865,1517.291504 1265.063354,1516.344482 
M884.449097,1443.818359 
	C898.806580,1439.688110 912.662231,1434.540039 924.292664,1424.799927 
	C893.548401,1371.070923 839.399048,1362.678101 792.140991,1401.196411 
	C812.684753,1433.365479 846.311462,1453.296875 884.449097,1443.818359 
M1514.154907,1390.846436 
	C1516.565796,1378.404419 1515.729004,1365.950073 1515.270996,1352.035767 
	C1507.084106,1353.447998 1499.954224,1354.231689 1493.055054,1355.944824 
	C1462.228882,1363.598267 1439.357910,1380.424194 1431.145874,1412.565674 
	C1428.461060,1423.073608 1427.580933,1434.087402 1426.485107,1444.931396 
	C1426.115112,1448.592651 1427.626831,1452.444092 1428.242798,1456.001709 
	C1474.641357,1454.056152 1506.587769,1433.308716 1514.154907,1390.846436 
M1251.702393,1095.264893 
	C1246.508057,1092.625366 1241.313721,1089.985718 1236.146484,1087.359863 
	C1208.953125,1141.896851 1227.152222,1192.053589 1282.122192,1213.983887 
	C1288.331543,1205.584717 1290.778809,1195.543213 1293.187500,1185.672119 
	C1298.965820,1161.992920 1297.274536,1139.382935 1280.949463,1119.825317 
	C1273.034912,1110.343628 1263.794556,1102.192749 1251.702393,1095.264893 
M1015.159973,1311.819336 
	C1023.695557,1327.549561 1034.241089,1341.333374 1050.707153,1349.681519 
	C1068.038818,1358.468750 1086.488159,1358.741089 1105.154175,1357.033936 
	C1110.904541,1356.508179 1116.552856,1354.866699 1122.213501,1353.742798 
	C1110.658325,1291.345093 1064.557251,1265.852417 1005.086426,1286.681396 
	C1008.205505,1294.644775 1011.315125,1302.583984 1015.159973,1311.819336 
M875.251526,1204.058350 
	C871.479858,1204.958496 867.708191,1205.858643 864.000488,1206.743530 
	C875.863586,1267.132935 924.839661,1292.100342 980.354370,1274.304688 
	C976.996887,1258.242676 970.597229,1243.540161 960.984131,1230.179688 
	C950.635986,1215.797485 936.931213,1206.721680 919.450134,1203.335449 
	C905.240295,1200.582764 891.103943,1201.039795 875.251526,1204.058350 
M1860.744141,1413.769531 
	C1857.556519,1417.859741 1854.368774,1421.949951 1851.204346,1426.010376 
	C1902.907959,1467.273682 1955.169434,1453.242798 1983.689453,1402.826172 
	C1974.424072,1394.563843 1956.388550,1385.602783 1940.851807,1382.915649 
	C1925.271362,1380.220947 1909.794312,1380.528564 1895.002563,1387.690552 
	C1882.208740,1393.885132 1871.363403,1402.465454 1860.744141,1413.769531 
M1289.293213,1437.689209 
	C1306.353882,1450.222168 1325.626465,1456.165649 1346.480713,1457.869263 
	C1356.949219,1394.700928 1319.894409,1353.755005 1260.328125,1355.656738 
	C1260.328125,1364.911133 1259.369751,1374.292480 1260.521484,1383.407227 
	C1263.175781,1404.413086 1270.546631,1423.360962 1289.293213,1437.689209 
M1663.877441,1322.932373 
	C1661.438599,1329.641602 1658.999756,1336.350952 1656.565796,1343.046509 
	C1713.890747,1363.015381 1761.678345,1339.556885 1773.307861,1276.139648 
	C1760.968750,1271.600586 1748.089600,1271.364014 1735.168457,1271.674927 
	C1715.432861,1272.149902 1698.297363,1278.614624 1684.256226,1293.041626 
	C1676.020020,1301.504150 1669.780884,1311.154663 1663.877441,1322.932373 
M1619.695068,1354.684814 
	C1633.515991,1336.894775 1640.011353,1316.618164 1641.480957,1294.366455 
	C1569.906006,1285.384521 1538.993164,1329.019531 1535.827637,1377.983276 
	C1566.561646,1381.878052 1595.578857,1380.033081 1619.695068,1354.684814 
M1453.342041,1185.764282 
	C1451.401123,1182.744263 1449.460205,1179.724365 1447.538940,1176.735107 
	C1393.591553,1208.314575 1385.900146,1263.891846 1420.476685,1309.477783 
	C1429.181030,1302.305908 1438.519409,1295.818726 1446.387695,1287.875244 
	C1462.332275,1271.778198 1470.766724,1252.436523 1468.359009,1229.199341 
	C1466.786865,1214.026978 1461.294800,1200.228271 1453.342041,1185.764282 
M1803.150879,1168.062988 
	C1803.464966,1164.601440 1803.779053,1161.139771 1804.082764,1157.791870 
	C1773.834961,1152.913086 1742.177490,1160.016113 1724.899658,1177.833618 
	C1708.025513,1195.234985 1699.699829,1216.627808 1697.578979,1241.618652 
	C1711.591309,1241.618652 1724.284058,1242.836426 1736.653076,1241.353394 
	C1759.130493,1238.658203 1777.615234,1228.338379 1789.160645,1207.947998 
	C1795.909790,1196.028442 1800.855469,1183.403442 1803.150879,1168.062988 
M1070.242310,1076.813232 
	C1051.328125,1054.921875 1026.233154,1047.768066 998.076050,1045.850098 
	C996.177185,1075.387329 998.994568,1102.913330 1020.931091,1124.074829 
	C1038.457031,1140.981567 1060.594482,1147.969238 1085.346680,1149.624023 
	C1087.895020,1123.401489 1086.024414,1099.398438 1070.242310,1076.813232 
M1659.952026,1037.387939 
	C1658.406372,1037.293213 1656.770142,1036.818604 1655.329346,1037.162720 
	C1642.286987,1040.276855 1630.361938,1045.878540 1619.065430,1053.101440 
	C1601.904907,1064.073730 1591.346924,1079.515747 1587.196045,1099.278809 
	C1585.706421,1106.370728 1584.389038,1113.696289 1584.530029,1120.885010 
	C1584.721680,1130.646851 1586.389404,1140.379761 1587.495728,1150.798950 
	C1607.169434,1148.358398 1623.271362,1141.147217 1637.901245,1130.453491 
	C1653.897827,1118.760742 1662.269897,1102.359863 1663.962646,1083.090576 
	C1665.263672,1068.278076 1665.506836,1053.209106 1659.952026,1037.387939 
M1224.856567,1375.666870 
	C1234.043335,1374.684326 1234.202026,1374.481323 1233.056763,1366.478760 
	C1232.682129,1363.861450 1232.561768,1361.207642 1232.184082,1358.590942 
	C1229.436401,1339.553223 1224.281250,1321.404663 1210.518188,1307.123901 
	C1189.145630,1284.947632 1161.854370,1282.472900 1132.364746,1284.048706 
	C1132.384155,1293.353638 1134.047852,1301.682495 1136.074707,1309.958862 
	C1144.590210,1344.730103 1165.833252,1366.294922 1201.514771,1372.672729 
	C1208.671875,1373.951782 1215.932251,1374.652710 1224.856567,1375.666870 
M1609.760864,1184.752808 
	C1590.648438,1204.200317 1579.737427,1244.195312 1588.355103,1263.217529 
	C1658.573975,1257.995117 1679.922241,1216.378296 1673.254150,1160.741455 
	C1656.102783,1158.115723 1627.392944,1168.686157 1609.760864,1184.752808 
M1061.044434,1246.342407 
	C1065.260132,1246.342407 1069.475952,1246.342407 1073.626587,1246.342407 
	C1074.797974,1181.228027 1034.025513,1149.159180 973.583862,1156.982544 
	C974.704651,1174.699707 978.272400,1191.792358 987.498352,1207.162842 
	C991.545776,1213.905884 996.403809,1220.536743 1002.190979,1225.789429 
	C1018.201904,1240.321899 1037.930542,1245.609009 1061.044434,1246.342407 
M2208.266357,1763.000000 
	C2208.266357,1772.989990 2208.144775,1782.981812 2208.300049,1792.969482 
	C2208.457764,1803.127563 2207.583496,1813.364380 2208.929932,1823.317383 
	C2215.963379,1823.317383 2221.713135,1823.317383 2227.945068,1823.317383 
	C2228.978271,1799.212158 2227.627441,1776.003174 2228.826904,1751.607910 
	C2253.398193,1751.607910 2276.869141,1751.607910 2300.757324,1751.607910 
	C2300.757324,1744.588013 2300.757324,1738.903076 2300.757324,1732.780151 
	C2276.404297,1731.309082 2252.865723,1733.390503 2229.708252,1731.554810 
	C2227.351318,1718.954346 2227.856201,1688.425537 2230.708252,1680.328125 
	C2242.574219,1680.328125 2254.841064,1680.465820 2267.103516,1680.289307 
	C2279.254639,1680.114380 2291.482178,1681.097168 2303.495117,1679.633789 
	C2303.495117,1673.173706 2303.495117,1668.022705 2303.495117,1663.059082 
	C2292.166016,1660.854858 2217.034424,1661.232422 2208.266846,1663.719238 
	C2208.266846,1695.901489 2208.266846,1728.450684 2208.266357,1763.000000 
M2542.872559,1680.332520 
	C2548.086914,1680.152954 2553.301270,1679.973389 2558.765869,1679.785278 
	C2558.765869,1673.328003 2558.765869,1667.946899 2558.765869,1662.718384 
	C2544.408203,1660.628906 2454.586182,1661.302368 2446.957520,1663.545044 
	C2446.957520,1668.551880 2446.957520,1673.692627 2446.957520,1680.323486 
	C2462.044434,1680.323486 2476.488525,1680.323486 2492.261475,1680.323486 
	C2492.261475,1705.360474 2492.215576,1728.923096 2492.274658,1752.485474 
	C2492.333740,1776.027588 2492.005371,1799.580444 2492.500244,1823.637939 
	C2499.987549,1823.637939 2506.125488,1823.637939 2513.738525,1823.637939 
	C2513.738525,1799.421997 2513.734619,1775.867310 2513.739258,1752.312622 
	C2513.744141,1728.768188 2513.757568,1705.223633 2513.767822,1680.333008 
	C2523.773438,1680.333008 2532.344971,1680.333008 2542.872559,1680.332520 
M883.523315,1661.964600 
	C877.802002,1663.632446 879.813721,1668.484741 879.802429,1672.032593 
	C879.652527,1719.359985 879.686462,1766.688110 879.737976,1814.015991 
	C879.741394,1817.195923 880.253845,1820.375366 880.521545,1823.462646 
	C887.481384,1823.462646 893.293213,1823.462646 898.948181,1823.462646 
	C901.476135,1810.137329 900.746399,1669.373047 898.016479,1661.783691 
	C893.973511,1661.783691 889.669861,1661.783691 883.523315,1661.964600 
M2390.302002,1681.086670 
	C2390.153076,1674.913208 2390.003906,1668.739746 2389.853027,1662.494873 
	C2382.582520,1662.494873 2376.766602,1662.494873 2371.134521,1662.494873 
	C2368.682373,1674.577271 2369.237305,1816.245483 2371.642334,1823.500366 
	C2377.426758,1823.500366 2383.242920,1823.500366 2390.302490,1823.500366 
	C2390.302490,1776.167969 2390.302490,1729.613647 2390.302002,1681.086670 
z"/>
<path fill="#1872F9" opacity="1.000000" stroke="none" 
	d="
M1400.364258,1782.002197 
	C1400.300049,1810.996826 1400.240234,1838.991333 1400.142456,1866.985718 
	C1400.140381,1867.605469 1399.706665,1868.223633 1399.315186,1869.266357 
	C1392.250000,1869.266357 1385.030762,1869.266357 1377.127930,1869.266357 
	C1376.837769,1866.495605 1376.339966,1863.955444 1376.339233,1861.415039 
	C1376.300537,1739.429932 1376.304077,1617.444702 1376.311646,1495.459595 
	C1376.311768,1493.462524 1376.137939,1491.408936 1376.527954,1489.479370 
	C1377.608398,1484.133667 1382.567139,1480.318115 1388.051514,1480.326660 
	C1394.112305,1480.335938 1398.637207,1483.432739 1399.764526,1489.103149 
	C1400.469116,1492.647217 1400.342041,1496.385376 1400.343018,1500.036377 
	C1400.369873,1593.691650 1400.364258,1687.346924 1400.364258,1782.002197 
z"/>
<path fill="#093C89" opacity="1.000000" stroke="none" 
	d="
M1589.546143,1817.834961 
	C1581.264282,1820.256104 1573.676392,1823.667969 1565.948242,1824.022705 
	C1547.330078,1824.877563 1528.646240,1824.322632 1509.989014,1824.272217 
	C1508.024902,1824.266846 1506.061890,1823.833374 1504.212036,1823.612061 
	C1501.781006,1816.095337 1501.325806,1673.889038 1503.783325,1662.457275 
	C1506.426514,1662.213013 1509.312744,1661.728882 1512.201050,1661.715454 
	C1528.192871,1661.641235 1544.195679,1661.342651 1560.172241,1661.841064 
	C1567.051758,1662.055542 1574.241821,1662.998779 1580.665527,1665.332153 
	C1612.272461,1676.813721 1614.111816,1722.551758 1591.377319,1736.355591 
	C1590.257935,1737.035400 1589.080933,1737.620483 1586.481323,1739.043091 
	C1604.457886,1748.414673 1612.198975,1762.265625 1611.425903,1779.937500 
	C1610.739502,1795.628418 1604.298340,1808.928101 1589.546143,1817.834961 
M1568.880127,1804.738525 
	C1571.069458,1803.953125 1573.345581,1803.349243 1575.433838,1802.352173 
	C1586.422363,1797.105225 1590.937012,1788.841675 1590.250610,1775.500000 
	C1589.676758,1764.346680 1583.691284,1755.890381 1572.666138,1752.524780 
	C1556.474365,1747.581787 1539.946167,1749.901611 1523.020264,1750.248779 
	C1523.020264,1769.236938 1523.020264,1787.027832 1523.020264,1806.035278 
	C1538.228882,1806.234253 1552.735229,1807.043335 1568.880127,1804.738525 
M1552.475098,1680.294189 
	C1542.676147,1680.705566 1532.749512,1679.306152 1522.585083,1681.420166 
	C1522.283813,1698.484619 1521.869141,1714.597412 1522.749878,1730.882080 
	C1535.706543,1730.882080 1547.274536,1731.121582 1558.823242,1730.756470 
	C1563.051514,1730.622803 1567.427368,1729.560303 1571.400024,1728.042236 
	C1581.421509,1724.213379 1586.638916,1715.490112 1586.167480,1704.427612 
	C1585.708618,1693.659546 1580.236328,1686.000610 1569.966187,1682.967896 
	C1564.929321,1681.480469 1559.550049,1681.152466 1552.475098,1680.294189 
z"/>
<path fill="#093C89" opacity="1.000000" stroke="none" 
	d="
M1056.722900,1775.252441 
	C1036.906860,1753.445190 1017.575928,1732.152100 998.244995,1710.859009 
	C997.420715,1711.166382 996.596436,1711.473755 995.772156,1711.781128 
	C995.772156,1748.817871 995.772156,1785.854736 995.772156,1823.588623 
	C988.197876,1823.588623 982.060791,1823.588623 976.037292,1823.588623 
	C973.717041,1815.277588 973.538879,1668.329468 976.131897,1657.376709 
	C1013.502502,1697.076416 1048.916382,1737.273926 1086.544922,1777.788696 
	C1088.509521,1766.919189 1087.439087,1757.726929 1087.626221,1748.626221 
	C1087.824707,1738.967163 1087.670776,1729.301025 1087.670776,1719.637939 
	C1087.670776,1710.308105 1087.670776,1700.978271 1087.670776,1691.648438 
	C1087.670776,1682.349609 1087.670654,1673.050781 1087.670654,1663.741455 
	C1094.382202,1660.522461 1100.494995,1661.579834 1106.506958,1662.440918 
	C1108.723267,1670.122192 1109.231323,1816.877075 1106.857910,1829.695923 
	C1089.826050,1811.196045 1073.517090,1793.481323 1056.722900,1775.252441 
z"/>
<path fill="#093D89" opacity="1.000000" stroke="none" 
	d="
M543.979309,1824.321411 
	C529.088318,1824.321655 515.192871,1824.321655 501.670685,1824.321655 
	C499.142365,1815.149414 498.932159,1672.656128 501.236877,1662.521484 
	C503.583740,1662.260498 506.145935,1661.741699 508.710724,1661.728638 
	C524.016479,1661.650757 539.326660,1661.469116 554.628113,1661.734375 
	C588.062317,1662.313965 617.041870,1681.566772 628.349121,1711.981812 
	C640.672913,1745.130859 635.416809,1775.833130 610.657959,1801.537842 
	C596.368530,1816.373169 578.021973,1824.191284 556.953613,1824.314331 
	C552.960815,1824.337646 548.967773,1824.319824 543.979309,1824.321411 
M519.718567,1747.000000 
	C519.718689,1756.661743 519.612671,1766.324951 519.748352,1775.984863 
	C519.886414,1785.814331 519.067810,1795.721191 520.526917,1806.280029 
	C530.318970,1806.280029 538.942261,1806.364990 547.562561,1806.242065 
	C551.550171,1806.185303 555.582520,1806.034302 559.508362,1805.395630 
	C589.161011,1800.571777 611.582642,1776.302856 613.624329,1746.996216 
	C615.559998,1719.211304 596.806091,1692.467163 569.771912,1683.571167 
	C555.729309,1678.950439 541.419495,1680.718140 527.176453,1680.406128 
	C524.985352,1680.358276 522.775452,1681.170654 519.718201,1681.746460 
	C519.718201,1703.101562 519.718201,1724.050781 519.718567,1747.000000 
z"/>
<path fill="#093D8A" opacity="1.000000" stroke="none" 
	d="
M1839.679565,1702.000000 
	C1839.679321,1686.836548 1839.679321,1672.672852 1839.679321,1658.509277 
	C1840.386230,1658.264038 1841.093262,1658.018799 1841.800171,1657.773560 
	C1877.908569,1697.294067 1914.017090,1736.814575 1950.125488,1776.335205 
	C1950.821655,1776.082031 1951.517944,1775.828735 1952.214233,1775.575562 
	C1952.214233,1738.179810 1952.214233,1700.784058 1952.214233,1662.552246 
	C1959.192505,1662.552246 1964.937866,1662.552246 1972.169067,1662.552246 
	C1972.497437,1717.621460 1972.225586,1772.346680 1971.367920,1827.529663 
	C1934.124878,1789.435913 1899.158813,1749.625732 1862.699463,1710.561768 
	C1859.209351,1714.019165 1860.394531,1717.813721 1860.382690,1721.141968 
	C1860.276123,1751.117188 1860.319946,1781.093018 1860.319580,1811.068604 
	C1860.319458,1814.969727 1860.319458,1818.870850 1860.319458,1823.533447 
	C1853.213501,1823.533447 1847.398193,1823.533447 1840.297852,1823.533447 
	C1839.027222,1810.316650 1839.856445,1797.096802 1839.713257,1783.933716 
	C1839.564575,1770.279785 1839.680054,1756.622925 1839.680054,1742.967407 
	C1839.680054,1729.644897 1839.679932,1716.322510 1839.679565,1702.000000 
z"/>
<path fill="#1872F9" opacity="1.000000" stroke="none" 
	d="
M1376.304077,2007.995483 
	C1376.304077,1968.381592 1376.304077,1929.766846 1376.304077,1890.397705 
	C1384.197998,1890.397705 1391.632446,1890.397705 1399.707520,1890.397705 
	C1399.917847,1892.814453 1400.332764,1895.373657 1400.334839,1897.933105 
	C1400.373413,1944.226074 1400.350952,1990.519165 1400.365112,2036.812134 
	C1400.376221,2073.071289 1371.506836,2102.487793 1333.853760,2101.567383 
	C1298.316162,2100.698486 1273.840698,2072.633057 1271.644409,2045.113281 
	C1270.985474,2036.856445 1270.294556,2028.556641 1270.457397,2020.292969 
	C1270.618530,2012.119019 1274.718140,2008.063721 1281.621582,2007.661377 
	C1289.809692,2007.184326 1293.910278,2010.927124 1294.362183,2019.224121 
	C1294.776489,2026.832520 1295.040161,2034.456299 1295.721924,2042.041504 
	C1297.541016,2062.281982 1315.797852,2077.476074 1336.144531,2077.475586 
	C1356.724731,2077.475342 1374.241333,2060.741211 1375.919556,2039.944824 
	C1376.747437,2029.684570 1376.218872,2019.314697 1376.304077,2007.995483 
z"/>
<path fill="#093C87" opacity="1.000000" stroke="none" 
	d="
M715.741577,1707.980713 
	C715.741394,1718.170044 715.741394,1727.364014 715.741394,1736.557861 
	C716.475647,1736.913818 717.209900,1737.269775 717.944153,1737.625854 
	C722.116882,1733.667969 726.461487,1729.874512 730.432617,1725.723877 
	C748.367493,1706.978149 766.336914,1688.261353 783.976379,1669.239868 
	C789.131287,1663.681152 794.616455,1660.707275 802.289978,1661.579102 
	C806.529541,1662.060669 810.868713,1661.665405 815.731934,1661.665405 
	C815.534851,1666.344971 812.778809,1668.760620 810.417542,1671.226318 
	C792.930786,1689.486450 775.345032,1707.651855 757.849304,1725.903442 
	C753.040955,1730.919556 748.432495,1736.127197 743.055298,1741.984375 
	C769.362854,1770.049072 798.101074,1794.984619 824.582703,1822.120483 
	C824.263672,1822.801880 823.944641,1823.483276 823.625610,1824.164673 
	C815.780151,1824.164673 807.859741,1824.796753 800.123047,1823.879517 
	C796.618835,1823.464233 793.012146,1820.457886 790.250793,1817.797852 
	C773.474182,1801.635864 756.988220,1785.172852 740.276245,1768.943237 
	C733.150696,1762.023315 725.713989,1755.423950 716.860474,1747.238159 
	C716.361084,1751.566162 715.797852,1754.233521 715.786255,1756.903320 
	C715.706665,1775.214478 715.742554,1793.526001 715.741394,1811.837402 
	C715.741211,1815.421143 715.741394,1819.004883 715.741394,1823.454834 
	C708.469299,1823.454834 702.349365,1823.454834 696.240540,1823.454834 
	C693.815796,1816.468628 693.137146,1675.751343 695.610596,1662.540771 
	C701.539368,1662.540771 707.660217,1662.540771 714.239746,1662.540771 
	C717.122498,1669.844727 715.366760,1677.531494 715.676331,1685.014038 
	C715.978882,1692.326172 715.741882,1699.660522 715.741577,1707.980713 
z"/>
<path fill="#093C88" opacity="1.000000" stroke="none" 
	d="
M2657.875488,1826.326904 
	C2639.040039,1826.939331 2623.045654,1822.164185 2611.583984,1807.809570 
	C2606.962402,1802.021484 2603.863037,1794.742065 2601.262207,1787.701294 
	C2599.093018,1781.828735 2600.568604,1780.253052 2606.858887,1778.639771 
	C2610.649658,1777.667725 2614.556396,1777.147095 2618.844238,1776.342407 
	C2619.616455,1778.416626 2620.355225,1779.872192 2620.703369,1781.416016 
	C2626.520020,1807.207642 2660.454590,1814.261963 2680.039307,1799.698120 
	C2691.295654,1791.327393 2694.920898,1775.792480 2687.212158,1765.322754 
	C2684.038574,1761.013184 2678.982422,1757.490479 2674.041992,1755.225708 
	C2667.147949,1752.065308 2659.526123,1750.519897 2652.277100,1748.099731 
	C2643.781494,1745.263184 2634.926758,1743.082642 2626.974121,1739.119751 
	C2604.261963,1727.802002 2598.434570,1698.385864 2614.884277,1678.907104 
	C2618.889404,1674.164795 2623.827148,1669.635742 2629.266602,1666.783203 
	C2648.173828,1656.868896 2667.676025,1656.737305 2686.822266,1666.238770 
	C2700.010010,1672.783325 2707.419678,1684.167847 2709.049316,1699.458618 
	C2703.238281,1700.864502 2697.277100,1702.306763 2691.056641,1703.811768 
	C2689.334717,1700.468018 2687.934326,1697.877441 2686.648438,1695.231323 
	C2677.041748,1675.455933 2645.488525,1675.841553 2633.678711,1688.107788 
	C2622.691650,1699.519287 2624.738281,1713.890747 2638.987061,1721.004395 
	C2645.176514,1724.094727 2652.024658,1725.881226 2658.603760,1728.173218 
	C2668.637451,1731.668457 2679.107910,1734.213745 2688.671631,1738.699829 
	C2720.645508,1753.698486 2716.840088,1795.774658 2696.449219,1812.665283 
	C2685.459473,1821.768433 2673.013672,1826.329590 2657.875488,1826.326904 
z"/>
<path fill="#093C89" opacity="1.000000" stroke="none" 
	d="
M1199.209106,1716.565918 
	C1208.239624,1720.778564 1216.600586,1724.780884 1225.243408,1728.033936 
	C1233.006714,1730.955811 1241.274902,1732.562500 1248.974854,1735.619629 
	C1264.680420,1741.854614 1276.421875,1751.678223 1278.339600,1770.032959 
	C1280.579956,1791.474243 1272.710815,1807.715820 1254.355835,1818.935669 
	C1236.509155,1829.844604 1201.983521,1829.861694 1183.725098,1813.624146 
	C1174.061523,1805.030396 1168.138428,1794.807983 1167.245972,1780.599609 
	C1173.170166,1779.151733 1179.080444,1777.707397 1185.443237,1776.152466 
	C1186.439941,1778.666626 1187.356934,1780.365601 1187.794800,1782.180176 
	C1191.771606,1798.657227 1207.987549,1807.962402 1225.290527,1807.248169 
	C1232.945801,1806.932129 1240.273682,1804.504883 1246.742432,1799.909668 
	C1262.035522,1789.045410 1262.151367,1767.940063 1246.301514,1758.093140 
	C1240.215820,1754.312378 1232.909912,1752.404907 1226.031982,1750.011841 
	C1215.687378,1746.412476 1204.916748,1743.870483 1194.880249,1739.584229 
	C1166.179932,1727.327515 1168.686890,1693.490967 1183.540527,1676.726074 
	C1203.257202,1654.472290 1243.140747,1655.345093 1261.051147,1671.097534 
	C1269.286987,1678.341064 1275.230713,1686.806030 1276.150391,1699.358643 
	C1269.979004,1700.860962 1264.052612,1702.303711 1257.904907,1703.800293 
	C1256.800049,1701.561768 1255.952026,1700.152588 1255.380493,1698.639038 
	C1247.214355,1677.011841 1217.544800,1675.752075 1204.276245,1685.023438 
	C1193.119751,1692.818970 1190.787109,1705.038208 1199.209106,1716.565918 
z"/>
<path fill="#093D89" opacity="1.000000" stroke="none" 
	d="
M350.765350,1772.324463 
	C343.598785,1771.380615 340.168518,1774.368774 337.747650,1779.996582 
	C332.223145,1792.839355 326.078339,1805.414673 320.528137,1818.246948 
	C318.680298,1822.518921 316.183075,1824.562866 311.505341,1824.345093 
	C306.645081,1824.118652 301.766083,1824.294434 294.712830,1824.294434 
	C321.090302,1767.568481 346.543945,1712.829346 371.997559,1658.090210 
	C372.847809,1658.065308 373.698059,1658.040527 374.548309,1658.015625 
	C400.190247,1712.547241 425.609741,1767.182251 451.404877,1823.458984 
	C446.391907,1823.838623 443.235046,1824.175293 440.070129,1824.290527 
	C436.770630,1824.410645 433.463379,1824.317383 429.261169,1824.317383 
	C424.024292,1813.003174 418.887634,1801.903687 413.749115,1790.805176 
	C411.930542,1786.877319 409.748566,1783.072510 408.375031,1778.994995 
	C406.550842,1773.579468 402.934174,1772.193604 397.650085,1772.262817 
	C382.325928,1772.463379 366.997375,1772.326782 350.765350,1772.324463 
M373.092499,1705.668335 
	C365.670990,1716.448853 353.159363,1745.265015 352.806946,1753.413696 
	C366.822449,1753.903564 380.781525,1753.836792 396.518982,1753.429932 
	C388.803284,1736.382935 382.426941,1720.867310 373.092499,1705.668335 
z"/>
<path fill="#093C88" opacity="1.000000" stroke="none" 
	d="
M1769.205566,1823.847656 
	C1738.112549,1824.087769 1707.921509,1824.087769 1677.006836,1824.087769 
	C1677.006836,1769.829224 1677.006836,1716.735840 1677.006836,1663.736084 
	C1684.130249,1661.268066 1756.474854,1660.496460 1771.362305,1662.796753 
	C1771.362305,1668.002930 1771.362305,1673.373779 1771.362305,1680.204956 
	C1746.674316,1680.286987 1722.255127,1680.368164 1696.739502,1680.453003 
	C1696.067627,1697.954956 1696.202271,1714.090942 1696.695190,1731.591187 
	C1708.935181,1732.911255 1720.802368,1732.094238 1732.602295,1732.238647 
	C1744.490479,1732.384277 1756.381714,1732.270630 1768.978882,1732.270630 
	C1768.978882,1739.096191 1768.978882,1744.550293 1768.978882,1751.145264 
	C1745.200439,1752.598999 1721.662598,1750.971191 1698.448242,1752.081543 
	C1695.824219,1759.857178 1695.455078,1794.535156 1698.018311,1806.219238 
	C1722.077271,1806.219238 1746.509277,1806.219238 1771.153931,1806.219238 
	C1772.145508,1813.070679 1774.057739,1818.484131 1769.205566,1823.847656 
z"/>
<path fill="#093C89" opacity="1.000000" stroke="none" 
	d="
M2045.669922,1791.994141 
	C2045.669556,1748.439331 2045.669556,1705.882935 2045.669556,1663.680908 
	C2054.515137,1661.225952 2130.146973,1660.895264 2140.924316,1663.092163 
	C2140.924316,1668.053711 2140.924316,1673.194214 2140.924316,1679.736450 
	C2116.477783,1681.250488 2091.977295,1679.537109 2066.605713,1680.729858 
	C2065.002686,1697.731201 2065.713623,1714.135132 2066.191650,1731.988159 
	C2090.232666,1732.176147 2113.649902,1732.359375 2137.664062,1732.547241 
	C2137.664062,1739.255615 2137.664062,1744.727661 2137.664062,1751.464355 
	C2113.905273,1751.464355 2090.743408,1751.464355 2066.526123,1751.464355 
	C2065.142334,1770.070679 2065.637939,1787.438354 2066.157715,1805.953613 
	C2091.299072,1805.953613 2115.476074,1805.953613 2140.863037,1805.953613 
	C2141.189697,1812.093018 2141.459961,1817.170410 2141.716553,1821.986938 
	C2134.067139,1824.738770 2062.508301,1825.582275 2046.344849,1823.210205 
	C2044.953369,1813.396484 2045.998413,1803.149902 2045.669922,1791.994141 
z"/>
<path fill="#1973FB" opacity="1.000000" stroke="none" 
	d="
M1165.854492,1266.052002 
	C1157.415894,1262.666626 1149.476318,1260.019775 1142.168091,1256.173218 
	C1119.866821,1244.435303 1108.285522,1224.937256 1104.419189,1200.699097 
	C1102.708252,1189.972900 1102.547607,1178.999390 1101.708008,1168.449341 
	C1117.890381,1162.924316 1158.556763,1176.969116 1173.499756,1194.639160 
	C1187.807129,1211.557495 1196.612427,1249.987549 1188.684326,1270.582031 
	C1181.461182,1269.159790 1174.051636,1267.700806 1165.854492,1266.052002 
z"/>
<path fill="#1973FB" opacity="1.000000" stroke="none" 
	d="
M1256.453369,1225.535645 
	C1277.697876,1238.732910 1290.780762,1256.486450 1293.250977,1281.196289 
	C1294.930176,1297.994507 1291.373169,1314.044189 1286.854858,1329.906982 
	C1268.705933,1329.506958 1238.838989,1310.032349 1227.209473,1290.726685 
	C1211.997559,1265.473877 1214.681763,1239.036255 1221.969482,1211.702393 
	C1234.848145,1214.061157 1245.413086,1219.414551 1256.453369,1225.535645 
z"/>
<path fill="#1973FB" opacity="1.000000" stroke="none" 
	d="
M1732.206543,1056.116455 
	C1750.244019,1048.022217 1766.564941,1044.125854 1776.650146,1045.376465 
	C1784.074463,1104.868896 1756.556885,1145.661987 1690.865845,1147.635376 
	C1684.315796,1111.140381 1699.352905,1071.209106 1732.206543,1056.116455 
z"/>
<path fill="#1973FB" opacity="1.000000" stroke="none" 
	d="
M1746.276123,1402.024780 
	C1770.930908,1393.998901 1792.893799,1400.444946 1814.214600,1411.034424 
	C1818.937378,1413.380005 1823.284912,1416.481567 1827.707153,1419.175293 
	C1821.588989,1437.333740 1791.282593,1463.559937 1768.359375,1466.821533 
	C1740.382812,1470.802124 1717.363647,1460.118530 1694.788818,1444.206909 
	C1708.103516,1424.358276 1724.523926,1410.572754 1746.276123,1402.024780 
z"/>
<path fill="#1973FC" opacity="1.000000" stroke="none" 
	d="
M1463.723999,1475.728027 
	C1479.207764,1460.260376 1496.348267,1449.336670 1518.072144,1447.848755 
	C1536.172729,1446.609131 1552.872070,1452.010376 1568.747803,1460.174316 
	C1573.688232,1462.714722 1578.277832,1465.937622 1583.015137,1468.840332 
	C1551.814697,1520.962646 1500.916870,1533.070068 1450.056763,1493.015015 
	C1453.050049,1486.418579 1458.113281,1481.307617 1463.723999,1475.728027 
z"/>
<path fill="#1973FC" opacity="1.000000" stroke="none" 
	d="
M1069.637451,1479.714355 
	C1082.867310,1471.033569 1096.163086,1464.774780 1111.593262,1463.583618 
	C1135.131592,1461.766724 1154.199463,1471.467163 1171.412109,1486.049805 
	C1176.610718,1490.454102 1181.165649,1495.618286 1186.036255,1500.455078 
	C1140.507446,1543.282227 1092.385376,1541.075562 1050.053101,1495.823730 
	C1056.417969,1490.560547 1062.728760,1485.342041 1069.637451,1479.714355 
z"/>
<path fill="#1973FB" opacity="1.000000" stroke="none" 
	d="
M1123.745483,1370.323975 
	C1143.205444,1371.468262 1159.669067,1377.806030 1172.665283,1391.334961 
	C1184.023071,1403.158203 1192.670898,1416.866211 1198.118164,1432.445679 
	C1151.203979,1456.194702 1098.661011,1445.815674 1072.747925,1382.714355 
	C1088.455933,1374.538452 1105.389526,1371.436035 1123.745483,1370.323975 
z"/>
<path fill="#1973FB" opacity="1.000000" stroke="none" 
	d="
M1418.919678,1396.607178 
	C1412.340332,1414.947998 1401.342285,1429.253052 1388.235229,1442.182861 
	C1342.869385,1402.287720 1343.740601,1346.987061 1386.988403,1307.880371 
	C1414.235229,1327.201660 1426.942871,1361.868774 1418.919678,1396.607178 
z"/>
<path fill="#1973FC" opacity="1.000000" stroke="none" 
	d="
M1453.672363,1102.092041 
	C1444.320801,1086.921631 1438.135498,1071.350830 1436.171509,1054.191284 
	C1434.035889,1035.531616 1438.255737,1018.639648 1449.209839,1003.350037 
	C1458.218262,990.776428 1469.365723,980.532715 1482.571533,971.432678 
	C1484.241577,973.275085 1485.944214,974.735535 1487.136597,976.534302 
	C1497.998413,992.920471 1504.515503,1011.017700 1505.440308,1030.562256 
	C1506.129883,1045.134888 1501.161865,1058.632202 1492.734497,1070.672363 
	C1483.840454,1083.379028 1472.498901,1093.505859 1459.451660,1101.742920 
	C1458.054443,1102.625000 1455.932007,1102.358398 1453.672363,1102.092041 
z"/>
<path fill="#1973FC" opacity="1.000000" stroke="none" 
	d="
M917.533813,1368.527222 
	C899.341736,1356.083130 888.111755,1339.183472 879.104065,1319.342896 
	C881.785034,1317.896729 883.890808,1316.459595 886.205505,1315.560547 
	C902.426514,1309.259766 918.983154,1305.369385 936.662048,1306.958496 
	C963.066162,1309.331909 980.239990,1324.933105 993.619507,1345.927612 
	C998.174500,1353.075073 1002.860535,1360.414307 1004.404785,1370.093750 
	C975.197937,1381.106201 946.632629,1385.606201 917.533813,1368.527222 
z"/>
<path fill="#1973FB" opacity="1.000000" stroke="none" 
	d="
M1583.228638,1508.716431 
	C1581.853027,1507.225586 1580.979492,1506.234985 1580.115601,1505.255371 
	C1620.098877,1463.820190 1673.315918,1462.665283 1714.440796,1508.807007 
	C1691.657471,1536.092041 1646.303711,1558.323730 1603.894165,1526.971069 
	C1596.719360,1521.666748 1590.429443,1515.165161 1583.228638,1508.716431 
z"/>
<path fill="#1973FC" opacity="1.000000" stroke="none" 
	d="
M962.319702,1524.308350 
	C950.112793,1531.288574 938.204468,1536.623169 924.733948,1538.702759 
	C914.189148,1540.330811 904.253967,1539.200073 894.376038,1536.176270 
	C876.675903,1530.757935 858.846924,1518.763428 846.833923,1504.675049 
	C883.777466,1462.704590 938.820129,1456.569214 981.921570,1509.660767 
	C975.570984,1514.419189 969.247742,1519.157104 962.319702,1524.308350 
z"/>
<path fill="#1973FB" opacity="1.000000" stroke="none" 
	d="
M1414.813110,1158.729980 
	C1407.553101,1172.375122 1399.004517,1184.080322 1388.259888,1194.123657 
	C1342.978394,1154.607056 1343.619385,1099.110840 1386.964722,1059.886963 
	C1411.057373,1078.332886 1434.662842,1118.899292 1414.813110,1158.729980 
z"/>
<path fill="#1974FC" opacity="1.000000" stroke="none" 
	d="
M999.620972,1408.988403 
	C1042.088257,1400.630005 1071.890869,1427.471558 1087.577515,1454.351318 
	C1039.715820,1489.957886 989.477600,1482.357544 954.666687,1430.717163 
	C967.914795,1420.531616 982.531067,1413.281494 999.620972,1408.988403 
z"/>
<path fill="#1973FC" opacity="1.000000" stroke="none" 
	d="
M1361.370605,939.454956 
	C1367.974854,925.479736 1375.937378,913.454773 1387.058228,903.716187 
	C1434.006104,946.299988 1433.836548,997.164673 1387.647705,1037.937622 
	C1362.131104,1018.466675 1343.639648,975.136902 1361.370605,939.454956 
z"/>
<path fill="#1974FC" opacity="1.000000" stroke="none" 
	d="
M1307.186646,1100.534302 
	C1294.481445,1088.658691 1283.531738,1076.339722 1276.963623,1060.632324 
	C1270.137695,1044.307983 1269.719971,1027.670044 1274.544922,1010.930786 
	C1278.692871,996.540100 1284.801636,983.026184 1294.957642,971.724609 
	C1347.502197,1005.388123 1354.992676,1059.177124 1313.211182,1105.041504 
	C1311.392212,1103.689209 1309.558228,1102.325684 1307.186646,1100.534302 
z"/>
<path fill="#1973FC" opacity="1.000000" stroke="none" 
	d="
M1898.109131,1530.184814 
	C1858.711670,1550.451904 1818.849243,1532.240112 1795.551025,1500.911011 
	C1838.414673,1460.110840 1888.260864,1459.833618 1929.758789,1505.934692 
	C1921.700073,1516.784668 1910.201172,1523.272461 1898.109131,1530.184814 
z"/>
<path fill="#1973FC" opacity="1.000000" stroke="none" 
	d="
M1773.475098,1353.647217 
	C1780.632080,1341.782593 1789.218384,1331.991089 1799.166138,1323.616699 
	C1818.620605,1307.239014 1841.277466,1303.451904 1865.621216,1308.814575 
	C1876.586304,1311.230103 1887.489990,1314.224487 1897.171875,1320.260376 
	C1874.776855,1376.497314 1824.547241,1394.915771 1769.450806,1362.080200 
	C1770.646240,1359.532715 1771.875854,1356.912598 1773.475098,1353.647217 
z"/>
<path fill="#1973FB" opacity="1.000000" stroke="none" 
	d="
M1168.266357,997.298767 
	C1166.582520,978.746826 1171.787109,954.919006 1180.308716,941.074463 
	C1240.973755,965.090637 1254.438354,1013.118958 1226.699463,1066.906006 
	C1200.784790,1061.430054 1172.451416,1028.099976 1168.266357,997.298767 
z"/>
<path fill="#1973FB" opacity="1.000000" stroke="none" 
	d="
M1551.656616,971.628540 
	C1563.207275,957.387146 1577.149902,947.454590 1592.874023,939.924438 
	C1605.752686,953.826721 1612.599243,991.342529 1605.346802,1012.995667 
	C1596.063599,1040.711548 1573.899658,1055.199707 1549.178467,1066.984741 
	C1534.578125,1044.164185 1528.655151,998.161621 1551.656616,971.628540 
z"/>
<path fill="#1974FC" opacity="1.000000" stroke="none" 
	d="
M1678.868408,1424.909180 
	C1664.357422,1442.428467 1646.604858,1453.023804 1624.349976,1453.147095 
	C1604.853149,1453.255005 1586.304565,1448.084717 1569.548828,1437.584473 
	C1592.720825,1382.955200 1644.662842,1366.449585 1696.879395,1395.652710 
	C1693.094482,1406.472900 1686.589478,1415.646729 1678.868408,1424.909180 
z"/>
<path fill="#1973FC" opacity="1.000000" stroke="none" 
	d="
M1357.464966,1299.588135 
	C1355.095459,1302.824707 1353.123657,1305.457275 1351.167725,1308.068848 
	C1302.613892,1275.426025 1293.165405,1223.220337 1331.970581,1174.061646 
	C1358.003174,1193.880737 1378.894165,1216.390259 1376.220459,1252.234619 
	C1374.929688,1269.540527 1367.642212,1284.835327 1357.464966,1299.588135 
z"/>
<path fill="#1973FB" opacity="1.000000" stroke="none" 
	d="
M1186.251465,1140.080200 
	C1184.910400,1145.286865 1183.671387,1149.652344 1182.451782,1153.949585 
	C1123.067627,1139.259521 1099.623413,1092.210083 1118.277100,1036.446167 
	C1119.111572,1036.241699 1120.157349,1035.616455 1120.968628,1035.840576 
	C1141.896484,1041.620117 1160.496216,1051.446533 1174.608521,1068.325439 
	C1187.006348,1083.154175 1190.139648,1100.996826 1189.370361,1119.656860 
	C1189.099976,1126.214600 1187.400513,1132.713379 1186.251465,1140.080200 
z"/>
<path fill="#1973FC" opacity="1.000000" stroke="none" 
	d="
M1542.743896,1302.738892 
	C1526.354004,1320.228149 1506.217407,1328.715576 1483.852539,1332.954712 
	C1467.720337,1275.132812 1495.205078,1229.691284 1555.182129,1218.876831 
	C1561.921509,1248.260254 1563.326904,1276.696167 1542.743896,1302.738892 
z"/>
<path fill="#1973FC" opacity="1.000000" stroke="none" 
	d="
M1543.744751,1171.617432 
	C1531.280518,1190.792603 1513.736816,1202.310059 1493.020996,1211.438110 
	C1486.359863,1199.553101 1483.407593,1186.810669 1481.717163,1173.742554 
	C1476.461548,1133.112305 1497.010254,1106.986206 1530.244385,1088.128418 
	C1532.830933,1086.660645 1535.600464,1085.515381 1538.241333,1084.241211 
	C1551.520386,1101.487305 1560.662964,1145.210205 1543.744751,1171.617432 
z"/>
<path fill="#1973FC" opacity="1.000000" stroke="none" 
	d="
M1839.426025,1209.211914 
	C1863.205322,1198.028442 1886.973877,1198.766235 1911.643799,1204.903687 
	C1911.865723,1214.630127 1907.625488,1223.010986 1903.898071,1231.250732 
	C1893.416504,1254.421387 1877.676880,1272.151367 1851.441406,1277.518188 
	C1832.829346,1281.325439 1814.536743,1279.069336 1796.563599,1273.803345 
	C1795.763550,1254.154297 1816.043579,1223.510376 1839.426025,1209.211914 
z"/>
<path fill="#1973FC" opacity="1.000000" stroke="none" 
	d="
M1264.113770,1516.344482 
	C1250.661865,1517.291504 1239.631104,1512.760376 1229.184326,1506.714233 
	C1215.497314,1498.792725 1204.228394,1488.088989 1195.043823,1475.222656 
	C1194.324585,1474.215088 1194.132324,1472.831299 1193.462402,1470.978516 
	C1217.152466,1454.566162 1241.980713,1442.685181 1271.462402,1450.308472 
	C1280.819946,1452.728149 1289.688110,1458.190918 1297.874023,1463.625977 
	C1304.410767,1467.966187 1309.828247,1474.138550 1315.259644,1479.949097 
	C1319.301758,1484.273438 1322.571411,1489.319824 1326.994385,1495.102783 
	C1308.045654,1508.707275 1288.224121,1517.138794 1264.113770,1516.344482 
z"/>
<path fill="#1973FC" opacity="1.000000" stroke="none" 
	d="
M883.616333,1443.989258 
	C846.311462,1453.296875 812.684753,1433.365479 792.140991,1401.196411 
	C839.399048,1362.678101 893.548401,1371.070923 924.292664,1424.799927 
	C912.662231,1434.540039 898.806580,1439.688110 883.616333,1443.989258 
z"/>
<path fill="#1973FB" opacity="1.000000" stroke="none" 
	d="
M1513.993530,1391.689697 
	C1506.587769,1433.308716 1474.641357,1454.056152 1428.242798,1456.001709 
	C1427.626831,1452.444092 1426.115112,1448.592651 1426.485107,1444.931396 
	C1427.580933,1434.087402 1428.461060,1423.073608 1431.145874,1412.565674 
	C1439.357910,1380.424194 1462.228882,1363.598267 1493.055054,1355.944824 
	C1499.954224,1354.231689 1507.084106,1353.447998 1515.270996,1352.035767 
	C1515.729004,1365.950073 1516.565796,1378.404419 1513.993530,1391.689697 
z"/>
<path fill="#1973FC" opacity="1.000000" stroke="none" 
	d="
M1252.313110,1095.674805 
	C1263.794556,1102.192749 1273.034912,1110.343628 1280.949463,1119.825317 
	C1297.274536,1139.382935 1298.965820,1161.992920 1293.187500,1185.672119 
	C1290.778809,1195.543213 1288.331543,1205.584717 1282.122192,1213.983887 
	C1227.152222,1192.053589 1208.953125,1141.896851 1236.146484,1087.359863 
	C1241.313721,1089.985718 1246.508057,1092.625366 1252.313110,1095.674805 
z"/>
<path fill="#1973FB" opacity="1.000000" stroke="none" 
	d="
M1014.792358,1311.171265 
	C1011.315125,1302.583984 1008.205505,1294.644775 1005.086426,1286.681396 
	C1064.557251,1265.852417 1110.658325,1291.345093 1122.213501,1353.742798 
	C1116.552856,1354.866699 1110.904541,1356.508179 1105.154175,1357.033936 
	C1086.488159,1358.741089 1068.038818,1358.468750 1050.707153,1349.681519 
	C1034.241089,1341.333374 1023.695557,1327.549561 1014.792358,1311.171265 
z"/>
<path fill="#1973FC" opacity="1.000000" stroke="none" 
	d="
M876.108398,1203.886475 
	C891.103943,1201.039795 905.240295,1200.582764 919.450134,1203.335449 
	C936.931213,1206.721680 950.635986,1215.797485 960.984131,1230.179688 
	C970.597229,1243.540161 976.996887,1258.242676 980.354370,1274.304688 
	C924.839661,1292.100342 875.863586,1267.132935 864.000488,1206.743530 
	C867.708191,1205.858643 871.479858,1204.958496 876.108398,1203.886475 
z"/>
<path fill="#1974FC" opacity="1.000000" stroke="none" 
	d="
M1861.244385,1413.269775 
	C1871.363403,1402.465454 1882.208740,1393.885132 1895.002563,1387.690552 
	C1909.794312,1380.528564 1925.271362,1380.220947 1940.851807,1382.915649 
	C1956.388550,1385.602783 1974.424072,1394.563843 1983.689453,1402.826172 
	C1955.169434,1453.242798 1902.907959,1467.273682 1851.204346,1426.010376 
	C1854.368774,1421.949951 1857.556519,1417.859741 1861.244385,1413.269775 
z"/>
<path fill="#1974FC" opacity="1.000000" stroke="none" 
	d="
M1288.743774,1437.232422 
	C1270.546631,1423.360962 1263.175781,1404.413086 1260.521484,1383.407227 
	C1259.369751,1374.292480 1260.328125,1364.911133 1260.328125,1355.656738 
	C1319.894409,1353.755005 1356.949219,1394.700928 1346.480713,1457.869263 
	C1325.626465,1456.165649 1306.353882,1450.222168 1288.743774,1437.232422 
z"/>
<path fill="#1973FC" opacity="1.000000" stroke="none" 
	d="
M1664.149902,1322.225098 
	C1669.780884,1311.154663 1676.020020,1301.504150 1684.256226,1293.041626 
	C1698.297363,1278.614624 1715.432861,1272.149902 1735.168457,1271.674927 
	C1748.089600,1271.364014 1760.968750,1271.600586 1773.307861,1276.139648 
	C1761.678345,1339.556885 1713.890747,1363.015381 1656.565796,1343.046509 
	C1658.999756,1336.350952 1661.438599,1329.641602 1664.149902,1322.225098 
z"/>
<path fill="#1973FB" opacity="1.000000" stroke="none" 
	d="
M1619.230957,1355.218018 
	C1595.578857,1380.033081 1566.561646,1381.878052 1535.827637,1377.983276 
	C1538.993164,1329.019531 1569.906006,1285.384521 1641.480957,1294.366455 
	C1640.011353,1316.618164 1633.515991,1336.894775 1619.230957,1355.218018 
z"/>
<path fill="#1973FC" opacity="1.000000" stroke="none" 
	d="
M1453.739380,1186.364258 
	C1461.294800,1200.228271 1466.786865,1214.026978 1468.359009,1229.199341 
	C1470.766724,1252.436523 1462.332275,1271.778198 1446.387695,1287.875244 
	C1438.519409,1295.818726 1429.181030,1302.305908 1420.476685,1309.477783 
	C1385.900146,1263.891846 1393.591553,1208.314575 1447.538940,1176.735107 
	C1449.460205,1179.724365 1451.401123,1182.744263 1453.739380,1186.364258 
z"/>
<path fill="#1973FC" opacity="1.000000" stroke="none" 
	d="
M1802.876099,1168.876953 
	C1800.855469,1183.403442 1795.909790,1196.028442 1789.160645,1207.947998 
	C1777.615234,1228.338379 1759.130493,1238.658203 1736.653076,1241.353394 
	C1724.284058,1242.836426 1711.591309,1241.618652 1697.578979,1241.618652 
	C1699.699829,1216.627808 1708.025513,1195.234985 1724.899658,1177.833618 
	C1742.177490,1160.016113 1773.834961,1152.913086 1804.082764,1157.791870 
	C1803.779053,1161.139771 1803.464966,1164.601440 1802.876099,1168.876953 
z"/>
<path fill="#1974FC" opacity="1.000000" stroke="none" 
	d="
M1070.687256,1077.369995 
	C1086.024414,1099.398438 1087.895020,1123.401489 1085.346680,1149.624023 
	C1060.594482,1147.969238 1038.457031,1140.981567 1020.931091,1124.074829 
	C998.994568,1102.913330 996.177185,1075.387329 998.076050,1045.850098 
	C1026.233154,1047.768066 1051.328125,1054.921875 1070.687256,1077.369995 
z"/>
<path fill="#1973FC" opacity="1.000000" stroke="none" 
	d="
M1660.458008,1038.011841 
	C1665.506836,1053.209106 1665.263672,1068.278076 1663.962646,1083.090576 
	C1662.269897,1102.359863 1653.897827,1118.760742 1637.901245,1130.453491 
	C1623.271362,1141.147217 1607.169434,1148.358398 1587.495728,1150.798950 
	C1586.389404,1140.379761 1584.721680,1130.646851 1584.530029,1120.885010 
	C1584.389038,1113.696289 1585.706421,1106.370728 1587.196045,1099.278809 
	C1591.346924,1079.515747 1601.904907,1064.073730 1619.065430,1053.101440 
	C1630.361938,1045.878540 1642.286987,1040.276855 1655.329346,1037.162720 
	C1656.770142,1036.818604 1658.406372,1037.293213 1660.458008,1038.011841 
z"/>
<path fill="#1973FC" opacity="1.000000" stroke="none" 
	d="
M1224.000732,1375.643555 
	C1215.932251,1374.652710 1208.671875,1373.951782 1201.514771,1372.672729 
	C1165.833252,1366.294922 1144.590210,1344.730103 1136.074707,1309.958862 
	C1134.047852,1301.682495 1132.384155,1293.353638 1132.364746,1284.048706 
	C1161.854370,1282.472900 1189.145630,1284.947632 1210.518188,1307.123901 
	C1224.281250,1321.404663 1229.436401,1339.553223 1232.184082,1358.590942 
	C1232.561768,1361.207642 1232.682129,1363.861450 1233.056763,1366.478760 
	C1234.202026,1374.481323 1234.043335,1374.684326 1224.000732,1375.643555 
z"/>
<path fill="#1974FC" opacity="1.000000" stroke="none" 
	d="
M1610.265015,1184.250000 
	C1627.392944,1168.686157 1656.102783,1158.115723 1673.254150,1160.741455 
	C1679.922241,1216.378296 1658.573975,1257.995117 1588.355103,1263.217529 
	C1579.737427,1244.195312 1590.648438,1204.200317 1610.265015,1184.250000 
z"/>
<path fill="#1974FC" opacity="1.000000" stroke="none" 
	d="
M1060.083618,1246.342285 
	C1037.930542,1245.609009 1018.201904,1240.321899 1002.190979,1225.789429 
	C996.403809,1220.536743 991.545776,1213.905884 987.498352,1207.162842 
	C978.272400,1191.792358 974.704651,1174.699707 973.583862,1156.982544 
	C1034.025513,1149.159180 1074.797974,1181.228027 1073.626587,1246.342407 
	C1069.475952,1246.342407 1065.260132,1246.342407 1060.083618,1246.342285 
z"/>
<path fill="#093C88" opacity="1.000000" stroke="none" 
	d="
M2208.266602,1762.000000 
	C2208.266846,1728.450684 2208.266846,1695.901489 2208.266846,1663.719238 
	C2217.034424,1661.232422 2292.166016,1660.854858 2303.495117,1663.059082 
	C2303.495117,1668.022705 2303.495117,1673.173706 2303.495117,1679.633789 
	C2291.482178,1681.097168 2279.254639,1680.114380 2267.103516,1680.289307 
	C2254.841064,1680.465820 2242.574219,1680.328125 2230.708252,1680.328125 
	C2227.856201,1688.425537 2227.351318,1718.954346 2229.708252,1731.554810 
	C2252.865723,1733.390503 2276.404297,1731.309082 2300.757324,1732.780151 
	C2300.757324,1738.903076 2300.757324,1744.588013 2300.757324,1751.607910 
	C2276.869141,1751.607910 2253.398193,1751.607910 2228.826904,1751.607910 
	C2227.627441,1776.003174 2228.978271,1799.212158 2227.945068,1823.317383 
	C2221.713135,1823.317383 2215.963379,1823.317383 2208.929932,1823.317383 
	C2207.583496,1813.364380 2208.457764,1803.127563 2208.300049,1792.969482 
	C2208.144775,1782.981812 2208.266357,1772.989990 2208.266602,1762.000000 
z"/>
<path fill="#093C88" opacity="1.000000" stroke="none" 
	d="
M2541.894531,1680.332764 
	C2532.344971,1680.333008 2523.773438,1680.333008 2513.767822,1680.333008 
	C2513.757568,1705.223633 2513.744141,1728.768188 2513.739258,1752.312622 
	C2513.734619,1775.867310 2513.738525,1799.421997 2513.738525,1823.637939 
	C2506.125488,1823.637939 2499.987549,1823.637939 2492.500244,1823.637939 
	C2492.005371,1799.580444 2492.333740,1776.027588 2492.274658,1752.485474 
	C2492.215576,1728.923096 2492.261475,1705.360474 2492.261475,1680.323486 
	C2476.488525,1680.323486 2462.044434,1680.323486 2446.957520,1680.323486 
	C2446.957520,1673.692627 2446.957520,1668.551880 2446.957520,1663.545044 
	C2454.586182,1661.302368 2544.408203,1660.628906 2558.765869,1662.718384 
	C2558.765869,1667.946899 2558.765869,1673.328003 2558.765869,1679.785278 
	C2553.301270,1679.973389 2548.086914,1680.152954 2541.894531,1680.332764 
z"/>
<path fill="#093E8C" opacity="1.000000" stroke="none" 
	d="
M884.444702,1661.874146 
	C889.669861,1661.783691 893.973511,1661.783691 898.016479,1661.783691 
	C900.746399,1669.373047 901.476135,1810.137329 898.948181,1823.462646 
	C893.293213,1823.462646 887.481384,1823.462646 880.521545,1823.462646 
	C880.253845,1820.375366 879.741394,1817.195923 879.737976,1814.015991 
	C879.686462,1766.688110 879.652527,1719.359985 879.802429,1672.032593 
	C879.813721,1668.484741 877.802002,1663.632446 884.444702,1661.874146 
z"/>
<path fill="#093E8C" opacity="1.000000" stroke="none" 
	d="
M2390.302246,1682.072998 
	C2390.302490,1729.613647 2390.302490,1776.167969 2390.302490,1823.500366 
	C2383.242920,1823.500366 2377.426758,1823.500366 2371.642334,1823.500366 
	C2369.237305,1816.245483 2368.682373,1674.577271 2371.134521,1662.494873 
	C2376.766602,1662.494873 2382.582520,1662.494873 2389.853027,1662.494873 
	C2390.003906,1668.739746 2390.153076,1674.913208 2390.302246,1682.072998 
z"/>
<path fill="#000102" opacity="1.000000" stroke="none" 
	d="
M1568.074585,1805.008789 
	C1552.735229,1807.043335 1538.228882,1806.234253 1523.020264,1806.035278 
	C1523.020264,1787.027832 1523.020264,1769.236938 1523.020264,1750.248779 
	C1539.946167,1749.901611 1556.474365,1747.581787 1572.666138,1752.524780 
	C1583.691284,1755.890381 1589.676758,1764.346680 1590.250610,1775.500000 
	C1590.937012,1788.841675 1586.422363,1797.105225 1575.433838,1802.352173 
	C1573.345581,1803.349243 1571.069458,1803.953125 1568.074585,1805.008789 
z"/>
<path fill="#000204" opacity="1.000000" stroke="none" 
	d="
M1553.400391,1680.296875 
	C1559.550049,1681.152466 1564.929321,1681.480469 1569.966187,1682.967896 
	C1580.236328,1686.000610 1585.708618,1693.659546 1586.167480,1704.427612 
	C1586.638916,1715.490112 1581.421509,1724.213379 1571.400024,1728.042236 
	C1567.427368,1729.560303 1563.051514,1730.622803 1558.823242,1730.756470 
	C1547.274536,1731.121582 1535.706543,1730.882080 1522.749878,1730.882080 
	C1521.869141,1714.597412 1522.283813,1698.484619 1522.585083,1681.420166 
	C1532.749512,1679.306152 1542.676147,1680.705566 1553.400391,1680.296875 
z"/>
<path fill="#000001" opacity="1.000000" stroke="none" 
	d="
M519.718384,1746.000000 
	C519.718201,1724.050781 519.718201,1703.101562 519.718201,1681.746460 
	C522.775452,1681.170654 524.985352,1680.358276 527.176453,1680.406128 
	C541.419495,1680.718140 555.729309,1678.950439 569.771912,1683.571167 
	C596.806091,1692.467163 615.559998,1719.211304 613.624329,1746.996216 
	C611.582642,1776.302856 589.161011,1800.571777 559.508362,1805.395630 
	C555.582520,1806.034302 551.550171,1806.185303 547.562561,1806.242065 
	C538.942261,1806.364990 530.318970,1806.280029 520.526917,1806.280029 
	C519.067810,1795.721191 519.886414,1785.814331 519.748352,1775.984863 
	C519.612671,1766.324951 519.718689,1756.661743 519.718384,1746.000000 
z"/>
<path fill="#000204" opacity="1.000000" stroke="none" 
	d="
M373.683655,1705.905273 
	C382.426941,1720.867310 388.803284,1736.382935 396.518982,1753.429932 
	C380.781525,1753.836792 366.822449,1753.903564 352.806946,1753.413696 
	C353.159363,1745.265015 365.670990,1716.448853 373.683655,1705.905273 
z"/>
</svg>