<?xml version="1.0" encoding="utf-8"?>
<!-- Generator: Adobe Illustrator 25.2.0, SVG Export Plug-In . SVG Version: 6.00 Build 0)  -->
<svg version="1.1" xmlns="http://www.w3.org/2000/svg" xmlns:xlink="http://www.w3.org/1999/xlink" x="0px" y="0px"
	 viewBox="0 0 3000 3000" style="enable-background:new 0 0 3000 3000;" xml:space="preserve">
<style type="text/css">
	.st0{display:none;}
	.st1{display:inline;fill:#0C0C0C;}
	.st2{display:none;fill:#FFFFFF;}
	.st3{fill:#FFFFFF;}
	.st4{fill:#093E8C;}
	.st5{fill:#1975FF;}
</style>
<g id="Layer_2" class="st0">
	<rect x="3194.87" y="34.37" class="st1" width="2964.88" height="1127.75"/>
</g>
<g id="Layer_3">
	<rect x="0" y="0" class="st2" width="3000" height="3000"/>
	<g id="Layer_4">
	</g>
	<rect x="-82.17" y="-82.17" class="st3" width="3164.34" height="3164.34"/>
	<g>
		<g>
			<path class="st4" d="M482.53,2237.47l-6.42-42.89h-45.59l-6.41,42.89H390l37.82-236.39h54.37l37.82,236.39H482.53z
				 M471.05,2162.5l-17.9-119.54l-17.9,119.54H471.05z"/>
			<path class="st4" d="M629.76,2001.07c18.46,0,32.31,4.95,41.54,14.86c9.23,9.91,13.85,24.43,13.85,43.56v119.54
				c0,19.14-4.62,33.66-13.85,43.57c-9.23,9.91-23.08,14.86-41.54,14.86H571v-236.39H629.76z M608.15,2203.7h20.94
				c6.08,0,10.75-1.8,14.01-5.4c3.26-3.6,4.9-9.46,4.9-17.56v-122.92c0-8.1-1.64-13.96-4.9-17.56c-3.27-3.6-7.94-5.4-14.01-5.4
				h-20.94V2203.7z"/>
			<path class="st4" d="M779.7,2164.86v72.61h-37.15v-236.39h37.15v103l48.63-103h37.15l-51.67,105.36l51.67,131.03h-38.16
				l-36.13-94.22L779.7,2164.86z"/>
			<path class="st4" d="M953.27,2001.07v236.39h-37.15v-236.39H953.27z"/>
			<path class="st4" d="M1047.15,2237.47h-33.44v-236.39h46.6l38.16,141.5v-141.5h33.1v236.39h-38.16l-46.26-171.21V2237.47z"/>
			<path class="st4" d="M1201.14,2013.74c9.23-10.24,22.85-15.36,40.86-15.36c18,0,31.63,5.12,40.86,15.36
				c9.23,10.25,13.85,24.94,13.85,44.07v7.43h-35.12v-9.79c0-8.11-1.58-14.01-4.73-17.73c-3.15-3.71-7.77-5.57-13.85-5.57
				c-6.08,0-10.7,1.86-13.85,5.57c-3.15,3.72-4.73,9.62-4.73,17.73c0,9.91,2.64,18.57,7.94,26c5.29,7.43,13.22,15.87,23.81,25.33
				c8.78,8.11,15.87,15.26,21.27,21.44c5.4,6.2,10.01,13.68,13.85,22.46c3.83,8.78,5.74,18.8,5.74,30.06
				c0,19.14-4.73,33.83-14.18,44.07c-9.46,10.25-23.19,15.36-41.2,15.36c-18.01,0-31.74-5.12-41.2-15.36
				c-9.45-10.24-14.18-24.93-14.18-44.07v-14.52h35.12v16.88c0,15.31,6.42,22.96,19.25,22.96s19.25-7.65,19.25-22.96
				c0-9.9-2.65-18.57-7.94-26c-5.29-7.43-13.23-15.87-23.81-25.33c-8.78-8.11-15.87-15.25-21.27-21.44
				c-5.4-6.19-10.02-13.68-13.85-22.46c-3.83-8.78-5.74-18.8-5.74-30.06C1187.29,2038.67,1191.9,2023.99,1201.14,2013.74z"/>
			<path class="st4" d="M1536.13,2014.41c8.78,8.89,13.17,22.57,13.17,41.03v8.44c0,12.16-1.97,22.18-5.91,30.05
				c-3.94,7.88-9.96,13.74-18.07,17.56c18.46,7.21,27.7,24.09,27.7,50.65v19.25c0,18.24-4.79,32.14-14.35,41.7
				c-9.57,9.57-23.59,14.35-42.04,14.35h-58.43v-236.39h56.06C1513.39,2001.07,1527.35,2005.52,1536.13,2014.41z M1475.34,2097.32
				h14.52c7.43,0,13-1.91,16.72-5.74c3.72-3.83,5.57-10.24,5.57-19.25v-13.17c0-8.55-1.52-14.74-4.56-18.57
				c-3.04-3.83-7.83-5.74-14.35-5.74h-17.9V2097.32z M1475.34,2203.7h21.28c6.53,0,11.36-1.74,14.52-5.23
				c3.15-3.49,4.73-9.51,4.73-18.07v-20.6c0-10.81-1.86-18.29-5.57-22.46c-3.72-4.16-9.85-6.25-18.41-6.25h-16.55V2203.7z"/>
			<path class="st4" d="M1697.21,2100.7v33.77h-50.99v69.23h64.16v33.77h-101.31v-236.39h101.31v33.77h-64.16v65.85H1697.21z"/>
			<path class="st4" d="M1800.21,2237.47h-33.44v-236.39h46.6l38.16,141.5v-141.5h33.1v236.39h-38.16l-46.26-171.21V2237.47z"/>
			<path class="st4" d="M2033.22,2100.7v33.77h-50.99v69.23h64.16v33.77h-101.31v-236.39h101.31v33.77h-64.16v65.85H2033.22z"/>
			<path class="st4" d="M2188.22,2106.1v33.77h-47.95v97.6h-37.15v-236.39h98.27v33.77h-61.12v71.26H2188.22z"/>
			<path class="st4" d="M2290.21,2001.07v236.39h-37.15v-236.39H2290.21z"/>
			<path class="st4" d="M2455,2001.07v33.77h-38.83v202.62h-37.15v-202.62h-38.83v-33.77H2455z"/>
			<path class="st4" d="M2514.09,2013.74c9.23-10.24,22.85-15.36,40.86-15.36c18,0,31.63,5.12,40.86,15.36
				c9.23,10.25,13.85,24.94,13.85,44.07v7.43h-35.12v-9.79c0-8.11-1.58-14.01-4.73-17.73c-3.15-3.71-7.77-5.57-13.85-5.57
				s-10.7,1.86-13.85,5.57c-3.15,3.72-4.73,9.62-4.73,17.73c0,9.91,2.64,18.57,7.94,26c5.29,7.43,13.22,15.87,23.81,25.33
				c8.78,8.11,15.87,15.26,21.27,21.44c5.4,6.2,10.01,13.68,13.85,22.46c3.83,8.78,5.74,18.8,5.74,30.06
				c0,19.14-4.73,33.83-14.18,44.07c-9.46,10.25-23.19,15.36-41.2,15.36c-18.01,0-31.74-5.12-41.2-15.36
				c-9.45-10.24-14.18-24.93-14.18-44.07v-14.52h35.12v16.88c0,15.31,6.42,22.96,19.25,22.96c12.83,0,19.25-7.65,19.25-22.96
				c0-9.9-2.65-18.57-7.94-26c-5.29-7.43-13.23-15.87-23.81-25.33c-8.78-8.11-15.87-15.25-21.27-21.44
				c-5.4-6.19-10.02-13.68-13.85-22.46c-3.83-8.78-5.74-18.8-5.74-30.06C2500.25,2038.67,2504.86,2023.99,2514.09,2013.74z"/>
		</g>
		<path class="st5" d="M1970.57,1154.27l6.93-6.37V825.92c0,0-145.33-50.27-356.38-63.09c-29.96-1.87-61.22-2.95-93.61-3v283.64
			c-10.86-0.51-21.76-0.75-32.76-0.75c-7.44,0-14.84,0.09-22.23,0.37c-31.78,0.94-63,4.03-93.61,9.08
			c-95.25,15.73-184.23,50.46-262.77,100.21V893.98c44.18-11.79,134.43-31.41,262.77-38.19v149.03c30.52-4.73,61.55-7.63,92.25-8.52
			c0.47,0,0.89-0.05,1.36-0.05V759.83c-31.73,0.05-63.09,1.08-93.61,2.71c-195.98,10.81-356.38,49.71-356.38,49.71v461.23
			c-0.05,2.06-0.09,29.49,9.31,72.88c7.77,36.09,22.05,83.13,48.26,135.74c26.63,53.5,68.9,118.75,135.55,185.45v-142.8
			c-18.86-25.6-35.29-52.05-49.24-79.29c-49.52-96.93-50.27-170.65-50.27-171.54v-7.21c75.54-58.98,165.08-100.77,262.77-119.45
			v649.39c28.74,18.07,59.86,35.76,93.61,52.8v-712.67c7.4-0.28,14.79-0.42,22.23-0.42c11,0,21.91,0.28,32.76,0.84
			c31.92,1.68,63.19,5.8,93.61,12.22c98.11,20.5,187.74,64.5,262.72,125.77c-0.28,9.5-3.98,79.8-50.22,170.28
			c-45.45,88.84-117.72,169.53-212.5,238.15v-486.27c-3.18-0.75-6.41-1.45-9.59-2.11c-27.48-5.76-55.7-9.5-84.02-11.14v665.35
			c33.75-17.04,64.87-34.78,93.61-52.89c168.36-106.02,254.86-226.26,298.81-314.44c23.92-48.02,37.91-91.37,46.06-126
			c11.09-46.9,11.51-77.74,11.51-82.19v-19.66l-6.93-6.37l-51.11-46.81l10.06-9.22L1970.57,1154.27z M1883.88,1159.23
			c-78.21-51.53-167.19-87.95-262.77-105.22V855.88c127.03,6.88,218.07,26.54,262.77,38.29V1159.23z"/>
	</g>
</g>
</svg>
