<!DOCTYPE svg PUBLIC "-//W3C//DTD SVG 1.1//EN" "http://www.w3.org/Graphics/SVG/1.1/DTD/svg11.dtd">
<!-- Uploaded to: SVG Repo, www.svgrepo.com, Transformed by: SVG Repo Mixer Tools -->
<svg fill="#000000" width="800px" height="800px" viewBox="0 0 24 24" id="garage" data-name="Flat Color" xmlns="http://www.w3.org/2000/svg" class="icon flat-color">
<g id="SVGRepo_bgCarrier" stroke-width="0"/>
<g id="SVGRepo_tracerCarrier" stroke-linecap="round" stroke-linejoin="round"/>
<g id="SVGRepo_iconCarrier">
<path id="primary" d="M19.89,5.83,12.45,2.11a1,1,0,0,0-.9,0L4.11,5.83A2,2,0,0,0,3,7.62V21a1,1,0,0,0,1,1H20a1,1,0,0,0,1-1V7.62A2,2,0,0,0,19.89,5.83Z" style="fill: #ffffff;"/>
<path id="secondary" d="M17,14H7V11a1,1,0,0,1,1-1h8a1,1,0,0,1,1,1ZM7,16v6H17V16Z" style="fill: #1c71d8;"/>
</g>
</svg>