<?xml version="1.0" encoding="utf-8"?>
<!-- Generator: Adobe Illustrator 25.2.0, SVG Export Plug-In . SVG Version: 6.00 Build 0)  -->
<svg version="1.1" xmlns="http://www.w3.org/2000/svg" xmlns:xlink="http://www.w3.org/1999/xlink" x="0px" y="0px"
	 viewBox="0 0 3000 3000" style="enable-background:new 0 0 3000 3000;" xml:space="preserve">
<style type="text/css">
	.st0{display:none;}
	.st1{display:inline;fill:#0C0C0C;}
	.st2{display:none;fill:#FFFFFF;}
	.st3{fill:#FFFFFF;}
	.st4{fill:#093E8C;}
	.st5{fill:#1975FF;}
</style>
<g id="Layer_2" class="st0">
	<rect x="3194.87" y="34.37" class="st1" width="2964.88" height="1127.75"/>
</g>
<g id="Layer_3">
	<rect x="0" y="0" class="st2" width="3000" height="3000"/>
	<g id="Layer_4">
	</g>
	<rect x="-82.17" y="-82.17" class="st3" width="3164.34" height="3164.34"/>
	<g>
		<g>
			<path class="st4" d="M426.32,1821.79l-23.86-52.33h-65.23l-23.86,52.33h-21.42l77.89-167.47l77.89,167.47H426.32z
				 M369.85,1698.62l-24.58,53.31h49.17L369.85,1698.62z"/>
			<path class="st4" d="M548.53,1821.79h-52.09v-162.11h52.09c46,0,81.79,34.81,81.79,81.06
				C630.31,1786.98,594.53,1821.79,548.53,1821.79z M545.61,1677.2h-29.69v127.06h29.69c35.78,0,64.99-27.51,64.99-63.53
				C610.6,1704.71,581.39,1677.2,545.61,1677.2z"/>
			<path class="st4" d="M691.67,1821.79v-162.11h19.47v162.11H691.67z M794.87,1821.79l-83.73-81.05l77.4-81.06h25.56l-76.43,80.08
				l84.71,82.03H794.87z"/>
			<path class="st4" d="M876.67,1821.79v-162.11h19.47v162.11H876.67z"/>
			<path class="st4" d="M991.08,1703.25v118.54H971.6v-167.47l112.94,123.9v-118.54h19.47v167.47L991.08,1703.25z"/>
			<path class="st4" d="M1219.17,1823.74c-31.4,0-53.55-20.69-55.26-45.52l18.99-4.14c0.97,19.23,16.55,31.16,37,31.16
				c20.94,0,35.3-12.66,35.3-29.94c0-15.58-9.98-23.37-38.95-30.18c-34.81-8.03-46.49-21.66-46.49-42.36
				c0-26.04,23.12-45.27,51.85-45.27c29.21,0,47.71,17.53,51.11,39.19l-18.99,4.14c-2.68-15.33-16.07-24.58-32.86-24.58
				c-18.26,0-31.4,10.71-31.4,25.31c0,12.66,9.25,19.23,36.03,25.8c36.75,9.01,49.41,23.61,49.41,47.71
				C1274.91,1803.29,1250.57,1823.74,1219.17,1823.74z"/>
			<path class="st4" d="M1555.67,1821.79h-56.47v-162.11h56.47c37.97,0,46.98,27.51,46.98,43.33s-8.76,28.97-22.15,33.84
				c16.79,6.33,26.77,19.96,26.77,38.7C1607.27,1794.28,1596.07,1821.79,1555.67,1821.79z M1548.36,1677.2h-29.69v52.09h29.69
				c23.61,0,34.81-8.52,34.81-26.05S1571.98,1677.2,1548.36,1677.2z M1552.99,1746.82h-34.32v57.44h34.32
				c27.99,0,34.81-16.31,34.81-28.72C1587.8,1763.13,1580.98,1746.82,1552.99,1746.82z"/>
			<path class="st4" d="M1673.49,1821.79v-162.11h95.41v17.53h-75.94v53.8h73.02v17.53h-73.02v55.74h75.94v17.53H1673.49z"/>
			<path class="st4" d="M1856.06,1703.25v118.54h-19.47v-167.47l112.94,123.9v-118.54H1969v167.47L1856.06,1703.25z"/>
			<path class="st4" d="M2042.04,1821.79v-162.11h95.41v17.53h-75.94v53.8h73.02v17.53h-73.02v55.74h75.94v17.53H2042.04z"/>
			<path class="st4" d="M2224.6,1677.2v53.8h73.03v17.53h-73.03v73.27h-19.47v-162.11h95.42v17.53H2224.6z"/>
			<path class="st4" d="M2366.77,1821.79v-162.11h19.47v162.11H2366.77z"/>
			<path class="st4" d="M2509.17,1677.2v144.59h-19.47V1677.2h-46.49v-17.53h112.46v17.53H2509.17z"/>
			<path class="st4" d="M2652.3,1823.74c-31.4,0-53.55-20.69-55.26-45.52l18.99-4.14c0.98,19.23,16.55,31.16,37,31.16
				c20.93,0,35.29-12.66,35.29-29.94c0-15.58-9.98-23.37-38.95-30.18c-34.81-8.03-46.49-21.66-46.49-42.36
				c0-26.04,23.12-45.27,51.85-45.27c29.21,0,47.71,17.53,51.11,39.19l-18.99,4.14c-2.68-15.33-16.07-24.58-32.86-24.58
				c-18.26,0-31.4,10.71-31.4,25.31c0,12.66,9.25,19.23,36.03,25.8c36.75,9.01,49.41,23.61,49.41,47.71
				C2708.04,1803.29,2683.7,1823.74,2652.3,1823.74z"/>
		</g>
		<g>
			<g>
				<path class="st5" d="M1418.43,1371.66c-0.66-37.13-34.81-66.64-34.81-66.64s-33.09,30.7-32.43,67.84
					c0.66,37.14,32.43,66.64,32.43,66.64S1419.09,1408.8,1418.43,1371.66z"/>
				<path class="st5" d="M1326.42,1380.68c-24.37-28.03-69.5-28.68-69.5-28.68s-5.61,44.79,18.76,72.81
					c24.37,28.02,67.68,30.21,67.68,30.21S1350.79,1408.7,1326.42,1380.68z"/>
				<path class="st5" d="M1251.22,1513.16c36.69,5.8,71.26-20.36,71.26-20.36s-24.07-40.26-60.76-46.06
					c-36.69-5.8-71.68,22.71-71.68,22.71S1214.54,1507.36,1251.22,1513.16z"/>
				<path class="st5" d="M1519.58,1512.95c36.46-7.1,59.59-45.85,59.59-45.85s-35.98-27.25-72.44-20.16
					c-36.46,7.1-60,43.51-60,43.51S1483.12,1520.05,1519.58,1512.95z"/>
				<path class="st5" d="M1442.44,1381.59c-23.37,28.87-18,71.9-18,71.9s46.9-0.72,70.27-29.59c23.37-28.87,16.17-73.43,16.17-73.43
					S1465.81,1352.72,1442.44,1381.59z"/>
				<path class="st5" d="M1383.62,1191.51c0,0,35.47-30.7,34.81-67.84c-0.66-37.13-34.81-66.64-34.81-66.64s-33.09,30.7-32.43,67.84
					C1351.85,1162,1383.62,1191.51,1383.62,1191.51z"/>
				<path class="st5" d="M1278.36,1212c0,0,22.83-40.98,9.51-75.65s-55.51-50.72-55.51-50.72s-20.59,40.16-7.27,74.83
					C1238.41,1195.13,1278.36,1212,1278.36,1212z"/>
				<path class="st5" d="M1186.45,1267.25c0,0,7.44-46.32-16.94-74.34c-24.37-28.03-69.5-28.68-69.5-28.68s-5.61,44.79,18.76,72.81
					C1143.15,1265.07,1186.45,1267.25,1186.45,1267.25z"/>
				<path class="st5" d="M1002.52,1283.37c0,0,10.04,44,42.53,62c32.49,18,73.93,5.24,73.93,5.24s-8.85-46.07-41.34-64.06
					C1045.16,1268.55,1002.52,1283.37,1002.52,1283.37z"/>
				<path class="st5" d="M1023.34,1405.95c-36.69-5.8-71.68,22.71-71.68,22.71s24.49,37.92,61.17,43.72
					c36.69,5.8,71.26-20.36,71.26-20.36S1060.02,1411.75,1023.34,1405.95z"/>
				<path class="st5" d="M1752.18,1397.74c-36.46,7.1-60,43.51-60,43.51s36.39,29.6,72.85,22.5c36.46-7.1,59.59-45.85,59.59-45.85
					S1788.64,1390.64,1752.18,1397.74z"/>
				<path class="st5" d="M1729.87,1337.37c31.83-19.14,40.31-63.47,40.31-63.47s-43.13-13.3-74.96,5.83
					c-31.83,19.14-41.5,61.41-41.5,61.41S1698.04,1356.51,1729.87,1337.37z"/>
				<path class="st5" d="M1601.34,1188.33c-23.37,28.87-18,71.9-18,71.9s46.9-0.72,70.27-29.59c23.37-28.87,16.17-73.43,16.17-73.43
					S1624.71,1159.46,1601.34,1188.33z"/>
				<path class="st5" d="M1545.46,1156.42c12.08-35.12-9.92-74.53-9.92-74.53s-41.59,17.53-53.67,52.65
					c-12.08,35.12,7.68,73.72,7.68,73.72S1533.37,1191.54,1545.46,1156.42z"/>
				<path class="st5" d="M1305.48,1243.98c5.81,36.68,41.37,61.49,41.37,61.49s30.86-35.33,25.05-72.01
					c-5.81-36.68-43.73-61.16-43.73-61.16S1299.68,1207.29,1305.48,1243.98z"/>
				<path class="st5" d="M1222.29,1284.67c18.01,32.49,59.91,43.63,59.91,43.63s16.92-43.75-1.09-76.24
					c-18.01-32.49-62.01-42.52-62.01-42.52S1204.28,1252.19,1222.29,1284.67z"/>
				<path class="st5" d="M1202.15,1300.61c-28.03-24.37-72.81-18.74-72.81-18.74s0.66,45.13,28.69,69.5
					c28.03,24.37,71.22,20.51,71.22,20.51S1230.18,1324.98,1202.15,1300.61z"/>
				<path class="st5" d="M1069.72,1380.52c0,0,16.06,42.18,50.73,55.49c34.67,13.31,73.94-5.08,73.94-5.08s-15.16-44.39-49.84-57.7
					C1109.88,1359.92,1069.72,1380.52,1069.72,1380.52z"/>
				<path class="st5" d="M1047.44,1493.62c0,0,29.52,34.15,66.65,34.8c37.14,0.65,67.74-30.06,67.74-30.06s-29.43-36.53-66.57-37.17
					C1078.14,1460.52,1047.44,1493.62,1047.44,1493.62z"/>
				<path class="st5" d="M1711.12,1506.86c0,0-29.52-34.15-66.65-34.8c-37.14-0.65-67.74,30.06-67.74,30.06s29.43,36.53,66.57,37.18
					C1680.43,1539.96,1711.12,1506.86,1711.12,1506.86z"/>
				<path class="st5" d="M1618.84,1383.07c-35.12,12.09-53.38,51.42-53.38,51.42s40.15,24.26,75.27,12.17
					c35.12-12.09,52.64-53.69,52.64-53.69S1653.95,1370.98,1618.84,1383.07z"/>
				<path class="st5" d="M1564.31,1308.2c-28.86,23.37-32.57,66.58-32.57,66.58s46.03,9.06,74.89-14.31
					c28.86-23.37,31.1-68.45,31.1-68.45S1593.18,1284.83,1564.31,1308.2z"/>
				<path class="st5" d="M1479.64,1330.2c0,0,46.35-7.23,65.48-39.06c19.13-31.84,5.82-74.96,5.82-74.96s-44.33,8.49-63.46,40.33
					C1468.34,1288.33,1479.64,1330.2,1479.64,1330.2z"/>
				<path class="st5" d="M1415.43,1306.13c0,0,41.08-22.64,48.17-59.1c7.09-36.46-20.17-72.43-20.17-72.43s-38.75,23.14-45.84,59.6
					C1390.49,1270.65,1415.43,1306.13,1415.43,1306.13z"/>
				<path class="st5" d="M1310.43,1102.32c0,0,30.86-35.33,25.05-72.01c-5.81-36.68-43.73-61.16-43.73-61.16s-28.5,35-22.69,71.68
					C1274.87,1077.51,1310.43,1102.32,1310.43,1102.32z"/>
				<path class="st5" d="M1178.02,1151.9c0,0,16.92-43.75-1.09-76.24c-18.01-32.49-62.01-42.52-62.01-42.52s-14.81,42.64,3.19,75.12
					C1136.12,1140.75,1178.02,1151.9,1178.02,1151.9z"/>
				<path class="st5" d="M999.33,1223.26c28.03,24.37,71.22,20.51,71.22,20.51s0.93-46.9-27.1-71.27
					c-28.03-24.37-72.81-18.74-72.81-18.74S971.3,1198.89,999.33,1223.26z"/>
				<path class="st5" d="M951.15,1309.16c-34.67-13.31-74.83,7.29-74.83,7.29s16.06,42.18,50.73,55.49
					c34.67,13.31,73.94-5.08,73.94-5.08S985.82,1322.47,951.15,1309.16z"/>
				<path class="st5" d="M843.32,1501.59c0,0,29.52,34.15,66.65,34.8c37.14,0.65,67.74-30.07,67.74-30.07s-29.43-36.53-66.57-37.18
					C874.02,1468.5,843.32,1501.59,843.32,1501.59z"/>
				<path class="st5" d="M1926.3,1503.56c0,0-29.52-34.15-66.65-34.8c-37.14-0.65-67.74,30.07-67.74,30.07s29.43,36.53,66.57,37.17
					C1895.61,1536.65,1926.3,1503.56,1926.3,1503.56z"/>
				<path class="st5" d="M1893.98,1318.3c0,0-39.42-21.99-74.53-9.9c-35.12,12.09-53.38,51.42-53.38,51.42s40.15,24.26,75.27,12.17
					C1876.46,1359.89,1893.98,1318.3,1893.98,1318.3z"/>
				<path class="st5" d="M1694.25,1238.03c0,0,46.03,9.06,74.89-14.31c28.86-23.37,31.1-68.45,31.1-68.45s-44.56-7.18-73.42,16.19
					C1697.96,1194.83,1694.25,1238.03,1694.25,1238.03z"/>
				<path class="st5" d="M1592.95,1074.45c-19.13,31.84-7.83,73.7-7.83,73.7s46.35-7.23,65.48-39.06
					c19.13-31.84,5.82-74.96,5.82-74.96S1612.08,1042.61,1592.95,1074.45z"/>
				<path class="st5" d="M1499.98,1041.91c7.09-36.46-20.17-72.43-20.17-72.43s-38.75,23.14-45.84,59.6
					c-7.09,36.46,17.84,71.94,17.84,71.94S1492.89,1078.37,1499.98,1041.91z"/>
				<path class="st5" d="M1383.62,1035.99c0,0,35.47-30.7,34.81-67.84c-0.66-37.13-34.81-66.64-34.81-66.64s-33.09,30.7-32.43,67.84
					C1351.85,1006.49,1383.62,1035.99,1383.62,1035.99z"/>
				<path class="st5" d="M1222.68,1064.79c0,0,22.83-40.98,9.51-75.65c-13.32-34.67-55.51-50.72-55.51-50.72
					s-20.59,40.16-7.27,74.84C1182.73,1047.93,1222.68,1064.79,1222.68,1064.79z"/>
				<path class="st5" d="M1081.29,1146.9c0,0,7.44-46.32-16.94-74.34c-24.37-28.02-69.51-28.68-69.51-28.68s-5.61,44.78,18.76,72.81
					C1037.98,1144.72,1081.29,1146.9,1081.29,1146.9z"/>
				<path class="st5" d="M902.58,1267.18c32.49,18,73.93,5.24,73.93,5.24s-8.85-46.07-41.34-64.06c-32.49-18-75.12-3.18-75.12-3.18
					S870.09,1249.18,902.58,1267.18z"/>
				<path class="st5" d="M849.71,1442.36c36.69,5.8,71.26-20.36,71.26-20.36s-24.07-40.26-60.76-46.06
					c-36.69-5.8-71.68,22.71-71.68,22.71S813.02,1436.56,849.71,1442.36z"/>
				<path class="st5" d="M1848.24,1423.85c0,0,36.39,29.6,72.85,22.5c36.46-7.1,59.59-45.85,59.59-45.85s-35.98-27.25-72.44-20.16
					C1871.78,1387.44,1848.24,1423.85,1848.24,1423.85z"/>
				<path class="st5" d="M1868.08,1266.58c31.83-19.14,40.31-63.47,40.31-63.47s-43.13-13.3-74.96,5.83
					c-31.83,19.14-41.5,61.41-41.5,61.41S1836.25,1285.72,1868.08,1266.58z"/>
				<path class="st5" d="M1756.78,1115.78c23.37-28.87,16.17-73.43,16.17-73.43s-45.08,2.25-68.45,31.12
					c-23.37,28.87-18,71.9-18,71.9S1733.42,1144.65,1756.78,1115.78z"/>
				<path class="st5" d="M1600.62,1012.14c12.08-35.12-9.92-74.53-9.92-74.53s-41.59,17.53-53.67,52.65
					c-12.08,35.12,7.68,73.72,7.68,73.72S1588.54,1047.26,1600.62,1012.14z"/>
			</g>
			<g>
				<g>
					<g>
						<path class="st5" d="M1396.33,1489.89v376.13h-23.11v-376.13c0-6.38,5.16-11.54,11.54-11.54
							C1391.13,1478.35,1396.33,1483.51,1396.33,1489.89z"/>
						<path class="st5" d="M1373.22,1887.27h23.11v146.97c0,35.43-28.85,64.24-64.24,64.24c-35.43,0-64.24-28.81-64.24-64.24v-17.54
							c0-6.38,5.16-11.57,11.54-11.57c6.38,0,11.54,5.2,11.54,11.57v17.54c0,22.67,18.46,41.16,41.16,41.16
							c22.67,0,41.13-18.49,41.13-41.16V1887.27z"/>
					</g>
				</g>
				<path class="st5" d="M1396.33,1887.27v146.97c0,35.43-28.85,64.24-64.24,64.24c-35.43,0-64.24-28.81-64.24-64.24v-17.54
					c0-6.38,5.16-11.57,11.54-11.57c6.38,0,11.54,5.2,11.54,11.57v17.54c0,22.67,18.46,41.16,41.16,41.16
					c22.67,0,41.13-18.49,41.13-41.16v-146.97H1396.33z"/>
			</g>
		</g>
	</g>
</g>
</svg>
